<?xml version="1.0" encoding="UTF-8" standalone="no"?>
<!DOCTYPE svg PUBLIC "-//W3C//DTD SVG 1.1//EN"
 "http://www.w3.org/Graphics/SVG/1.1/DTD/svg11.dtd">
<!-- Generated by graphviz version 12.2.1 (20241206.2353)
 -->
<!-- Title: snakemake_dag Pages: 1 -->
<svg width="1236pt" height="1791pt"
 viewBox="0.00 0.00 1235.95 1791.37" xmlns="http://www.w3.org/2000/svg" xmlns:xlink="http://www.w3.org/1999/xlink">
<g id="graph0" class="graph" transform="scale(1 1) rotate(0) translate(4 1787.37)">
<title>snakemake_dag</title>
<polygon fill="white" stroke="none" points="-4,4 -4,-1787.37 1231.95,-1787.37 1231.95,4 -4,4"/>
<!-- 0 -->
<g id="node1" class="node">
<title>0</title>
<path fill="#3b745f" stroke="#d85e56" stroke-width="0" d="M1215.95,-1236.8C1215.95,-1236.8 1185.95,-1236.8 1185.95,-1236.8 1179.95,-1236.8 1173.95,-1230.8 1173.95,-1224.8 1173.95,-1224.8 1173.95,-1212.8 1173.95,-1212.8 1173.95,-1206.8 1179.95,-1200.8 1185.95,-1200.8 1185.95,-1200.8 1215.95,-1200.8 1215.95,-1200.8 1221.95,-1200.8 1227.95,-1206.8 1227.95,-1212.8 1227.95,-1212.8 1227.95,-1224.8 1227.95,-1224.8 1227.95,-1230.8 1221.95,-1236.8 1215.95,-1236.8"/>
<text text-anchor="middle" x="1200.95" y="-1216.43" font-family="sans-serif" font-size="10.00" fill="white">all</text>
</g>
<!-- 1 -->
<g id="node2" class="node">
<title>1</title>
<path fill="#3b745f" stroke="#5663d8" stroke-width="0" d="M1005.05,-1410.8C1005.05,-1410.8 959.78,-1410.8 959.78,-1410.8 953.78,-1410.8 947.78,-1404.8 947.78,-1398.8 947.78,-1398.8 947.78,-1386.8 947.78,-1386.8 947.78,-1380.8 953.78,-1374.8 959.78,-1374.8 959.78,-1374.8 1005.05,-1374.8 1005.05,-1374.8 1011.05,-1374.8 1017.05,-1380.8 1017.05,-1386.8 1017.05,-1386.8 1017.05,-1398.8 1017.05,-1398.8 1017.05,-1404.8 1011.05,-1410.8 1005.05,-1410.8"/>
<text text-anchor="middle" x="982.42" y="-1390.43" font-family="sans-serif" font-size="10.00" fill="white">solve_model</text>
</g>
<!-- 1&#45;&gt;0 -->
<g id="edge14" class="edge">
<title>1&#45;&gt;0</title>
<path fill="none" stroke="#999999" stroke-width="1.5" d="M1016.98,-1404.34C1052.38,-1414.23 1108.02,-1422.99 1144.95,-1395.8 1192.11,-1361.07 1200.01,-1286.27 1200.64,-1245.92"/>
<polygon fill="#999999" stroke="#999999" stroke-width="1.5" points="1203.09,-1245.96 1200.66,-1238.95 1198.19,-1245.95 1203.09,-1245.96"/>
</g>
<!-- 51 -->
<g id="node52" class="node">
<title>51</title>
<path fill="#3b745f" stroke="#56d8d0" stroke-width="0" d="M1117.2,-1384.8C1117.2,-1384.8 1076.43,-1384.8 1076.43,-1384.8 1070.43,-1384.8 1064.43,-1378.8 1064.43,-1372.8 1064.43,-1372.8 1064.43,-1360.8 1064.43,-1360.8 1064.43,-1354.8 1070.43,-1348.8 1076.43,-1348.8 1076.43,-1348.8 1117.2,-1348.8 1117.2,-1348.8 1123.2,-1348.8 1129.2,-1354.8 1129.2,-1360.8 1129.2,-1360.8 1129.2,-1372.8 1129.2,-1372.8 1129.2,-1378.8 1123.2,-1384.8 1117.2,-1384.8"/>
<text text-anchor="middle" x="1096.81" y="-1364.43" font-family="sans-serif" font-size="10.00" fill="white">plot_results</text>
</g>
<!-- 1&#45;&gt;51 -->
<g id="edge89" class="edge">
<title>1&#45;&gt;51</title>
<path fill="none" stroke="#999999" stroke-width="1.5" d="M1016.84,-1385.07C1029.02,-1382.25 1042.93,-1379.04 1055.64,-1376.1"/>
<polygon fill="#999999" stroke="#999999" stroke-width="1.5" points="1056.16,-1378.49 1062.43,-1374.52 1055.06,-1373.72 1056.16,-1378.49"/>
</g>
<!-- 52 -->
<g id="node53" class="node">
<title>52</title>
<path fill="#3b745f" stroke="#56d8c1" stroke-width="0" d="M1122.82,-1490.37C1122.82,-1490.37 1070.8,-1490.37 1070.8,-1490.37 1064.8,-1490.37 1058.8,-1484.37 1058.8,-1478.37 1058.8,-1478.37 1058.8,-1465.23 1058.8,-1465.23 1058.8,-1459.23 1064.8,-1453.23 1070.8,-1453.23 1070.8,-1453.23 1122.82,-1453.23 1122.82,-1453.23 1128.82,-1453.23 1134.82,-1459.23 1134.82,-1465.23 1134.82,-1465.23 1134.82,-1478.37 1134.82,-1478.37 1134.82,-1484.37 1128.82,-1490.37 1122.82,-1490.37"/>
<text text-anchor="middle" x="1096.81" y="-1476.55" font-family="sans-serif" font-size="10.00" fill="white">plot_objective</text>
<text text-anchor="middle" x="1096.81" y="-1462.3" font-family="sans-serif" font-size="10.00" fill="white">breakdown</text>
</g>
<!-- 1&#45;&gt;52 -->
<g id="edge92" class="edge">
<title>1&#45;&gt;52</title>
<path fill="none" stroke="#999999" stroke-width="1.5" d="M1008.92,-1410.73C1024.65,-1421.78 1045,-1436.09 1062.06,-1448.07"/>
<polygon fill="#999999" stroke="#999999" stroke-width="1.5" points="1060.64,-1450.07 1067.77,-1452.09 1063.46,-1446.06 1060.64,-1450.07"/>
</g>
<!-- 53 -->
<g id="node54" class="node">
<title>53</title>
<path fill="#3b745f" stroke="#56d8b1" stroke-width="0" d="M1116.45,-1267.37C1116.45,-1267.37 1077.18,-1267.37 1077.18,-1267.37 1071.18,-1267.37 1065.18,-1261.37 1065.18,-1255.37 1065.18,-1255.37 1065.18,-1242.23 1065.18,-1242.23 1065.18,-1236.23 1071.18,-1230.23 1077.18,-1230.23 1077.18,-1230.23 1116.45,-1230.23 1116.45,-1230.23 1122.45,-1230.23 1128.45,-1236.23 1128.45,-1242.23 1128.45,-1242.23 1128.45,-1255.37 1128.45,-1255.37 1128.45,-1261.37 1122.45,-1267.37 1116.45,-1267.37"/>
<text text-anchor="middle" x="1096.81" y="-1253.55" font-family="sans-serif" font-size="10.00" fill="white">plot_health</text>
<text text-anchor="middle" x="1096.81" y="-1239.3" font-family="sans-serif" font-size="10.00" fill="white">impacts</text>
</g>
<!-- 1&#45;&gt;53 -->
<g id="edge96" class="edge">
<title>1&#45;&gt;53</title>
<path fill="none" stroke="#999999" stroke-width="1.5" d="M1005.11,-1374.98C1010.4,-1369.86 1015.68,-1363.97 1019.68,-1357.8 1040.26,-1326.07 1024.8,-1307.13 1048.68,-1277.8 1051.42,-1274.44 1054.66,-1271.36 1058.13,-1268.57"/>
<polygon fill="#999999" stroke="#999999" stroke-width="1.5" points="1059.43,-1270.66 1063.67,-1264.58 1056.56,-1266.68 1059.43,-1270.66"/>
</g>
<!-- 56 -->
<g id="node57" class="node">
<title>56</title>
<path fill="#3b745f" stroke="#56d88a" stroke-width="0" d="M1128.07,-1208.37C1128.07,-1208.37 1065.55,-1208.37 1065.55,-1208.37 1059.55,-1208.37 1053.55,-1202.37 1053.55,-1196.37 1053.55,-1196.37 1053.55,-1183.23 1053.55,-1183.23 1053.55,-1177.23 1059.55,-1171.23 1065.55,-1171.23 1065.55,-1171.23 1128.07,-1171.23 1128.07,-1171.23 1134.07,-1171.23 1140.07,-1177.23 1140.07,-1183.23 1140.07,-1183.23 1140.07,-1196.37 1140.07,-1196.37 1140.07,-1202.37 1134.07,-1208.37 1128.07,-1208.37"/>
<text text-anchor="middle" x="1096.81" y="-1194.55" font-family="sans-serif" font-size="10.00" fill="white">plot_crop</text>
<text text-anchor="middle" x="1096.81" y="-1180.3" font-family="sans-serif" font-size="10.00" fill="white">production_map</text>
</g>
<!-- 1&#45;&gt;56 -->
<g id="edge101" class="edge">
<title>1&#45;&gt;56</title>
<path fill="none" stroke="#999999" stroke-width="1.5" d="M988.48,-1375.04C999.87,-1335.9 1028.17,-1243.7 1048.68,-1218.8 1049.97,-1217.23 1051.37,-1215.73 1052.85,-1214.29"/>
<polygon fill="#999999" stroke="#999999" stroke-width="1.5" points="1054.33,-1216.24 1058.05,-1209.83 1051.14,-1212.52 1054.33,-1216.24"/>
</g>
<!-- 57 -->
<g id="node58" class="node">
<title>57</title>
<path fill="#3b745f" stroke="#56d89a" stroke-width="0" d="M1121.7,-242.37C1121.7,-242.37 1071.93,-242.37 1071.93,-242.37 1065.93,-242.37 1059.93,-236.37 1059.93,-230.37 1059.93,-230.37 1059.93,-217.23 1059.93,-217.23 1059.93,-211.23 1065.93,-205.23 1071.93,-205.23 1071.93,-205.23 1121.7,-205.23 1121.7,-205.23 1127.7,-205.23 1133.7,-211.23 1133.7,-217.23 1133.7,-217.23 1133.7,-230.37 1133.7,-230.37 1133.7,-236.37 1127.7,-242.37 1121.7,-242.37"/>
<text text-anchor="middle" x="1096.81" y="-228.55" font-family="sans-serif" font-size="10.00" fill="white">plot_cropland</text>
<text text-anchor="middle" x="1096.81" y="-214.3" font-family="sans-serif" font-size="10.00" fill="white">fraction_map</text>
</g>
<!-- 1&#45;&gt;57 -->
<g id="edge105" class="edge">
<title>1&#45;&gt;57</title>
<path fill="none" stroke="#999999" stroke-width="1.5" d="M990.32,-1375.1C999.01,-1351.83 1013.57,-1309.47 1019.68,-1271.8 1053.41,-1063.98 999.94,-529.62 1048.68,-324.8 1055.03,-298.12 1068.8,-270.02 1079.82,-250.25"/>
<polygon fill="#999999" stroke="#999999" stroke-width="1.5" points="1081.88,-251.58 1083.23,-244.29 1077.63,-249.16 1081.88,-251.58"/>
</g>
<!-- 58 -->
<g id="node59" class="node">
<title>58</title>
<path fill="#3b745f" stroke="#56d8b9" stroke-width="0" d="M1122.07,-387.5C1122.07,-387.5 1071.55,-387.5 1071.55,-387.5 1065.55,-387.5 1059.55,-381.5 1059.55,-375.5 1059.55,-375.5 1059.55,-348.11 1059.55,-348.11 1059.55,-342.11 1065.55,-336.11 1071.55,-336.11 1071.55,-336.11 1122.07,-336.11 1122.07,-336.11 1128.07,-336.11 1134.07,-342.11 1134.07,-348.11 1134.07,-348.11 1134.07,-375.5 1134.07,-375.5 1134.07,-381.5 1128.07,-387.5 1122.07,-387.5"/>
<text text-anchor="middle" x="1096.81" y="-373.68" font-family="sans-serif" font-size="10.00" fill="white">plot_irrigated</text>
<text text-anchor="middle" x="1096.81" y="-359.43" font-family="sans-serif" font-size="10.00" fill="white">cropland</text>
<text text-anchor="middle" x="1096.81" y="-345.18" font-family="sans-serif" font-size="10.00" fill="white">fraction_map</text>
</g>
<!-- 1&#45;&gt;58 -->
<g id="edge109" class="edge">
<title>1&#45;&gt;58</title>
<path fill="none" stroke="#999999" stroke-width="1.5" d="M990.01,-1375.05C998.38,-1351.72 1012.57,-1309.29 1019.68,-1271.8 1052.47,-1098.81 1085.68,-540.92 1093.89,-396.3"/>
<polygon fill="#999999" stroke="#999999" stroke-width="1.5" points="1096.32,-396.78 1094.27,-389.65 1091.43,-396.5 1096.32,-396.78"/>
</g>
<!-- 59 -->
<g id="node60" class="node">
<title>59</title>
<path fill="#3b745f" stroke="#56d892" stroke-width="0" d="M1122.45,-1326.37C1122.45,-1326.37 1071.18,-1326.37 1071.18,-1326.37 1065.18,-1326.37 1059.18,-1320.37 1059.18,-1314.37 1059.18,-1314.37 1059.18,-1301.23 1059.18,-1301.23 1059.18,-1295.23 1065.18,-1289.23 1071.18,-1289.23 1071.18,-1289.23 1122.45,-1289.23 1122.45,-1289.23 1128.45,-1289.23 1134.45,-1295.23 1134.45,-1301.23 1134.45,-1301.23 1134.45,-1314.37 1134.45,-1314.37 1134.45,-1320.37 1128.45,-1326.37 1122.45,-1326.37"/>
<text text-anchor="middle" x="1096.81" y="-1312.55" font-family="sans-serif" font-size="10.00" fill="white">plot_crop_use</text>
<text text-anchor="middle" x="1096.81" y="-1298.3" font-family="sans-serif" font-size="10.00" fill="white">breakdown</text>
</g>
<!-- 1&#45;&gt;59 -->
<g id="edge110" class="edge">
<title>1&#45;&gt;59</title>
<path fill="none" stroke="#999999" stroke-width="1.5" d="M1003.14,-1374.99C1015.8,-1363.86 1032.8,-1349.47 1048.68,-1337.8 1051.67,-1335.6 1054.82,-1333.39 1058.01,-1331.22"/>
<polygon fill="#999999" stroke="#999999" stroke-width="1.5" points="1059.12,-1333.43 1063.6,-1327.51 1056.41,-1329.35 1059.12,-1333.43"/>
</g>
<!-- 60 -->
<g id="node61" class="node">
<title>60</title>
<path fill="#3b745f" stroke="#56d8d8" stroke-width="0" d="M1129.95,-1102.37C1129.95,-1102.37 1063.68,-1102.37 1063.68,-1102.37 1057.68,-1102.37 1051.68,-1096.37 1051.68,-1090.37 1051.68,-1090.37 1051.68,-1077.23 1051.68,-1077.23 1051.68,-1071.23 1057.68,-1065.23 1063.68,-1065.23 1063.68,-1065.23 1129.95,-1065.23 1129.95,-1065.23 1135.95,-1065.23 1141.95,-1071.23 1141.95,-1077.23 1141.95,-1077.23 1141.95,-1090.37 1141.95,-1090.37 1141.95,-1096.37 1135.95,-1102.37 1129.95,-1102.37"/>
<text text-anchor="middle" x="1096.81" y="-1088.55" font-family="sans-serif" font-size="10.00" fill="white">plot_water_value</text>
<text text-anchor="middle" x="1096.81" y="-1074.3" font-family="sans-serif" font-size="10.00" fill="white">map</text>
</g>
<!-- 1&#45;&gt;60 -->
<g id="edge112" class="edge">
<title>1&#45;&gt;60</title>
<path fill="none" stroke="#999999" stroke-width="1.5" d="M989.04,-1374.82C996.36,-1351.24 1009.42,-1308.55 1019.68,-1271.8 1033.51,-1222.28 1028.46,-1207.08 1048.68,-1159.8 1056.2,-1142.22 1067.4,-1123.96 1076.99,-1109.74"/>
<polygon fill="#999999" stroke="#999999" stroke-width="1.5" points="1078.88,-1111.32 1080.84,-1104.16 1074.85,-1108.54 1078.88,-1111.32"/>
</g>
<!-- 61 -->
<g id="node62" class="node">
<title>61</title>
<path fill="#3b745f" stroke="#56d8a2" stroke-width="0" d="M1120.57,-1549.37C1120.57,-1549.37 1073.05,-1549.37 1073.05,-1549.37 1067.05,-1549.37 1061.05,-1543.37 1061.05,-1537.37 1061.05,-1537.37 1061.05,-1524.23 1061.05,-1524.23 1061.05,-1518.23 1067.05,-1512.23 1073.05,-1512.23 1073.05,-1512.23 1120.57,-1512.23 1120.57,-1512.23 1126.57,-1512.23 1132.57,-1518.23 1132.57,-1524.23 1132.57,-1524.23 1132.57,-1537.37 1132.57,-1537.37 1132.57,-1543.37 1126.57,-1549.37 1120.57,-1549.37"/>
<text text-anchor="middle" x="1096.81" y="-1535.55" font-family="sans-serif" font-size="10.00" fill="white">plot_food</text>
<text text-anchor="middle" x="1096.81" y="-1521.3" font-family="sans-serif" font-size="10.00" fill="white">consumption</text>
</g>
<!-- 1&#45;&gt;61 -->
<g id="edge114" class="edge">
<title>1&#45;&gt;61</title>
<path fill="none" stroke="#999999" stroke-width="1.5" d="M990.92,-1410.78C1001.25,-1433.96 1021.71,-1474.5 1048.68,-1501.8 1050.45,-1503.6 1052.36,-1505.33 1054.35,-1506.99"/>
<polygon fill="#999999" stroke="#999999" stroke-width="1.5" points="1052.53,-1508.68 1059.58,-1510.99 1055.51,-1504.79 1052.53,-1508.68"/>
</g>
<!-- 62 -->
<g id="node63" class="node">
<title>62</title>
<path fill="#3b745f" stroke="#56d8a9" stroke-width="0" d="M1132.95,-1638.37C1132.95,-1638.37 1060.68,-1638.37 1060.68,-1638.37 1054.68,-1638.37 1048.68,-1632.37 1048.68,-1626.37 1048.68,-1626.37 1048.68,-1613.23 1048.68,-1613.23 1048.68,-1607.23 1054.68,-1601.23 1060.68,-1601.23 1060.68,-1601.23 1132.95,-1601.23 1132.95,-1601.23 1138.95,-1601.23 1144.95,-1607.23 1144.95,-1613.23 1144.95,-1613.23 1144.95,-1626.37 1144.95,-1626.37 1144.95,-1632.37 1138.95,-1638.37 1132.95,-1638.37"/>
<text text-anchor="middle" x="1096.81" y="-1624.55" font-family="sans-serif" font-size="10.00" fill="white">plot_food</text>
<text text-anchor="middle" x="1096.81" y="-1610.3" font-family="sans-serif" font-size="10.00" fill="white">consumption_map</text>
</g>
<!-- 1&#45;&gt;62 -->
<g id="edge118" class="edge">
<title>1&#45;&gt;62</title>
<path fill="none" stroke="#999999" stroke-width="1.5" d="M988.43,-1410.77C997.67,-1442.4 1019.18,-1509.55 1048.68,-1560.8 1055.47,-1572.6 1064.5,-1584.53 1072.84,-1594.54"/>
<polygon fill="#999999" stroke="#999999" stroke-width="1.5" points="1070.87,-1596.01 1077.28,-1599.74 1074.6,-1592.83 1070.87,-1596.01"/>
</g>
<!-- 2 -->
<g id="node3" class="node">
<title>2</title>
<path fill="#3b745f" stroke="#d88d56" stroke-width="0" d="M891.41,-1037.8C891.41,-1037.8 847.64,-1037.8 847.64,-1037.8 841.64,-1037.8 835.64,-1031.8 835.64,-1025.8 835.64,-1025.8 835.64,-1013.8 835.64,-1013.8 835.64,-1007.8 841.64,-1001.8 847.64,-1001.8 847.64,-1001.8 891.41,-1001.8 891.41,-1001.8 897.41,-1001.8 903.41,-1007.8 903.41,-1013.8 903.41,-1013.8 903.41,-1025.8 903.41,-1025.8 903.41,-1031.8 897.41,-1037.8 891.41,-1037.8"/>
<text text-anchor="middle" x="869.52" y="-1017.43" font-family="sans-serif" font-size="10.00" fill="white">build_model</text>
</g>
<!-- 2&#45;&gt;1 -->
<g id="edge17" class="edge">
<title>2&#45;&gt;1</title>
<path fill="none" stroke="#999999" stroke-width="1.5" d="M875.75,-1037.53C887.9,-1078.68 918.97,-1183.91 945.16,-1271.8 954.88,-1304.41 966.14,-1341.95 973.5,-1366.46"/>
<polygon fill="#999999" stroke="#999999" stroke-width="1.5" points="971.1,-1367 975.46,-1373 975.8,-1365.59 971.1,-1367"/>
</g>
<!-- 3 -->
<g id="node4" class="node">
<title>3</title>
<path fill="#3b745f" stroke="#d86e56" stroke-width="0" d="M646.12,-1022.37C646.12,-1022.37 611.35,-1022.37 611.35,-1022.37 605.35,-1022.37 599.35,-1016.37 599.35,-1010.37 599.35,-1010.37 599.35,-997.23 599.35,-997.23 599.35,-991.23 605.35,-985.23 611.35,-985.23 611.35,-985.23 646.12,-985.23 646.12,-985.23 652.12,-985.23 658.12,-991.23 658.12,-997.23 658.12,-997.23 658.12,-1010.37 658.12,-1010.37 658.12,-1016.37 652.12,-1022.37 646.12,-1022.37"/>
<text text-anchor="middle" x="628.73" y="-1008.55" font-family="sans-serif" font-size="10.00" fill="white">build_crop</text>
<text text-anchor="middle" x="628.73" y="-994.3" font-family="sans-serif" font-size="10.00" fill="white">yields</text>
</g>
<!-- 3&#45;&gt;2 -->
<g id="edge18" class="edge">
<title>3&#45;&gt;2</title>
<path fill="none" stroke="#999999" stroke-width="1.5" d="M633.61,-985.62C641.09,-955.64 660.66,-896.67 702.87,-871.8 737.72,-851.27 759.44,-850.59 793.89,-871.8 836.97,-898.32 856.08,-958.21 863.82,-993.13"/>
<polygon fill="#999999" stroke="#999999" stroke-width="1.5" points="861.35,-993.27 865.17,-999.63 866.15,-992.28 861.35,-993.27"/>
</g>
<!-- 14 -->
<g id="node15" class="node">
<title>14</title>
<path fill="#3b745f" stroke="#d86656" stroke-width="0" d="M774.76,-1038.37C774.76,-1038.37 721.99,-1038.37 721.99,-1038.37 715.99,-1038.37 709.99,-1032.37 709.99,-1026.37 709.99,-1026.37 709.99,-1013.23 709.99,-1013.23 709.99,-1007.23 715.99,-1001.23 721.99,-1001.23 721.99,-1001.23 774.76,-1001.23 774.76,-1001.23 780.76,-1001.23 786.76,-1007.23 786.76,-1013.23 786.76,-1013.23 786.76,-1026.37 786.76,-1026.37 786.76,-1032.37 780.76,-1038.37 774.76,-1038.37"/>
<text text-anchor="middle" x="748.38" y="-1024.55" font-family="sans-serif" font-size="10.00" fill="white">build_crop</text>
<text text-anchor="middle" x="748.38" y="-1010.3" font-family="sans-serif" font-size="10.00" fill="white">residue_yields</text>
</g>
<!-- 3&#45;&gt;14 -->
<g id="edge47" class="edge">
<title>3&#45;&gt;14</title>
<path fill="none" stroke="#999999" stroke-width="1.5" d="M657.91,-1007.63C670.86,-1009.39 686.56,-1011.53 701.16,-1013.52"/>
<polygon fill="#999999" stroke="#999999" stroke-width="1.5" points="700.57,-1015.91 707.83,-1014.42 701.23,-1011.05 700.57,-1015.91"/>
</g>
<!-- 33 -->
<g id="node34" class="node">
<title>33</title>
<path fill="#3b745f" stroke="#d89556" stroke-width="0" d="M770.64,-1288.5C770.64,-1288.5 726.12,-1288.5 726.12,-1288.5 720.12,-1288.5 714.12,-1282.5 714.12,-1276.5 714.12,-1276.5 714.12,-1249.11 714.12,-1249.11 714.12,-1243.11 720.12,-1237.11 726.12,-1237.11 726.12,-1237.11 770.64,-1237.11 770.64,-1237.11 776.64,-1237.11 782.64,-1243.11 782.64,-1249.11 782.64,-1249.11 782.64,-1276.5 782.64,-1276.5 782.64,-1282.5 776.64,-1288.5 770.64,-1288.5"/>
<text text-anchor="middle" x="748.38" y="-1274.68" font-family="sans-serif" font-size="10.00" fill="white">build_region</text>
<text text-anchor="middle" x="748.38" y="-1260.43" font-family="sans-serif" font-size="10.00" fill="white">water</text>
<text text-anchor="middle" x="748.38" y="-1246.18" font-family="sans-serif" font-size="10.00" fill="white">availability</text>
</g>
<!-- 3&#45;&gt;33 -->
<g id="edge63" class="edge">
<title>3&#45;&gt;33</title>
<path fill="none" stroke="#999999" stroke-width="1.5" d="M632.15,-1022.12C638.18,-1062.33 656.83,-1160.06 702.87,-1226.8 704.51,-1229.17 706.34,-1231.47 708.31,-1233.68"/>
<polygon fill="#999999" stroke="#999999" stroke-width="1.5" points="706.31,-1235.14 712.97,-1238.41 709.8,-1231.7 706.31,-1235.14"/>
</g>
<!-- 4 -->
<g id="node5" class="node">
<title>4</title>
<path fill="#3b745f" stroke="#68d856" stroke-width="0" d="M289.06,-1213.37C289.06,-1213.37 231.04,-1213.37 231.04,-1213.37 225.04,-1213.37 219.04,-1207.37 219.04,-1201.37 219.04,-1201.37 219.04,-1188.23 219.04,-1188.23 219.04,-1182.23 225.04,-1176.23 231.04,-1176.23 231.04,-1176.23 289.06,-1176.23 289.06,-1176.23 295.06,-1176.23 301.06,-1182.23 301.06,-1188.23 301.06,-1188.23 301.06,-1201.37 301.06,-1201.37 301.06,-1207.37 295.06,-1213.37 289.06,-1213.37"/>
<text text-anchor="middle" x="260.05" y="-1199.55" font-family="sans-serif" font-size="10.00" fill="white">download_gaez</text>
<text text-anchor="middle" x="260.05" y="-1185.3" font-family="sans-serif" font-size="10.00" fill="white">yield_data</text>
</g>
<!-- 4&#45;&gt;3 -->
<g id="edge40" class="edge">
<title>4&#45;&gt;3</title>
<path fill="none" stroke="#999999" stroke-width="1.5" d="M300.82,-1204.54C362.53,-1217.11 481.78,-1230.93 554.6,-1171.8 590.19,-1142.9 564.61,-1114.53 583.6,-1072.8 590.43,-1057.8 600.12,-1042.23 608.69,-1029.69"/>
<polygon fill="#999999" stroke="#999999" stroke-width="1.5" points="610.55,-1031.31 612.54,-1024.16 606.53,-1028.5 610.55,-1031.31"/>
</g>
<!-- 8 -->
<g id="node9" class="node">
<title>8</title>
<path fill="#3b745f" stroke="#d8a456" stroke-width="0" d="M542.22,-380.37C542.22,-380.37 468.45,-380.37 468.45,-380.37 462.45,-380.37 456.45,-374.37 456.45,-368.37 456.45,-368.37 456.45,-355.23 456.45,-355.23 456.45,-349.23 462.45,-343.23 468.45,-343.23 468.45,-343.23 542.22,-343.23 542.22,-343.23 548.22,-343.23 554.22,-349.23 554.22,-355.23 554.22,-355.23 554.22,-368.37 554.22,-368.37 554.22,-374.37 548.22,-380.37 542.22,-380.37"/>
<text text-anchor="middle" x="505.34" y="-366.55" font-family="sans-serif" font-size="10.00" fill="white">compute_resource</text>
<text text-anchor="middle" x="505.34" y="-352.3" font-family="sans-serif" font-size="10.00" fill="white">classes</text>
</g>
<!-- 4&#45;&gt;8 -->
<g id="edge41" class="edge">
<title>4&#45;&gt;8</title>
<path fill="none" stroke="#999999" stroke-width="1.5" d="M261,-1176.4C261.04,-1078.9 264.74,-622.57 330.06,-500.8 358.53,-447.73 416.79,-407.81 458.1,-384.67"/>
<polygon fill="#999999" stroke="#999999" stroke-width="1.5" points="459.18,-386.88 464.13,-381.36 456.82,-382.58 459.18,-386.88"/>
</g>
<!-- 40 -->
<g id="node41" class="node">
<title>40</title>
<path fill="#3b745f" stroke="#d88556" stroke-width="0" d="M403.83,-1535.8C403.83,-1535.8 353.31,-1535.8 353.31,-1535.8 347.31,-1535.8 341.31,-1529.8 341.31,-1523.8 341.31,-1523.8 341.31,-1511.8 341.31,-1511.8 341.31,-1505.8 347.31,-1499.8 353.31,-1499.8 353.31,-1499.8 403.83,-1499.8 403.83,-1499.8 409.83,-1499.8 415.83,-1505.8 415.83,-1511.8 415.83,-1511.8 415.83,-1523.8 415.83,-1523.8 415.83,-1529.8 409.83,-1535.8 403.83,-1535.8"/>
<text text-anchor="middle" x="378.57" y="-1515.43" font-family="sans-serif" font-size="10.00" fill="white">build_luc_grid</text>
</g>
<!-- 4&#45;&gt;40 -->
<g id="edge78" class="edge">
<title>4&#45;&gt;40</title>
<path fill="none" stroke="#999999" stroke-width="1.5" d="M260.67,-1213.33C260.58,-1262.93 266.41,-1400.89 330.06,-1488.8 331.55,-1490.86 333.23,-1492.79 335.05,-1494.62"/>
<polygon fill="#999999" stroke="#999999" stroke-width="1.5" points="333.09,-1496.16 339.98,-1498.9 336.3,-1492.46 333.09,-1496.16"/>
</g>
<!-- 5 -->
<g id="node6" class="node">
<title>5</title>
<path fill="#3b745f" stroke="#78d856" stroke-width="0" d="M534.35,-716.37C534.35,-716.37 476.33,-716.37 476.33,-716.37 470.33,-716.37 464.33,-710.37 464.33,-704.37 464.33,-704.37 464.33,-691.23 464.33,-691.23 464.33,-685.23 470.33,-679.23 476.33,-679.23 476.33,-679.23 534.35,-679.23 534.35,-679.23 540.35,-679.23 546.35,-685.23 546.35,-691.23 546.35,-691.23 546.35,-704.37 546.35,-704.37 546.35,-710.37 540.35,-716.37 534.35,-716.37"/>
<text text-anchor="middle" x="505.34" y="-702.55" font-family="sans-serif" font-size="10.00" fill="white">download_gaez</text>
<text text-anchor="middle" x="505.34" y="-688.3" font-family="sans-serif" font-size="10.00" fill="white">suitability_data</text>
</g>
<!-- 5&#45;&gt;3 -->
<g id="edge36" class="edge">
<title>5&#45;&gt;3</title>
<path fill="none" stroke="#999999" stroke-width="1.5" d="M545.09,-716.33C548.75,-719.39 552.05,-722.87 554.6,-726.8 612.59,-816.2 534,-870.49 583.6,-964.8 586.29,-969.91 589.93,-974.66 593.99,-978.96"/>
<polygon fill="#999999" stroke="#999999" stroke-width="1.5" points="592.23,-980.68 598.98,-983.77 595.63,-977.15 592.23,-980.68"/>
</g>
<!-- 22 -->
<g id="node23" class="node">
<title>22</title>
<path fill="#3b745f" stroke="#d85656" stroke-width="0" d="M659.24,-327.37C659.24,-327.37 598.22,-327.37 598.22,-327.37 592.22,-327.37 586.22,-321.37 586.22,-315.37 586.22,-315.37 586.22,-302.23 586.22,-302.23 586.22,-296.23 592.22,-290.23 598.22,-290.23 598.22,-290.23 659.24,-290.23 659.24,-290.23 665.24,-290.23 671.24,-296.23 671.24,-302.23 671.24,-302.23 671.24,-315.37 671.24,-315.37 671.24,-321.37 665.24,-327.37 659.24,-327.37"/>
<text text-anchor="middle" x="628.73" y="-313.55" font-family="sans-serif" font-size="10.00" fill="white">aggregate_class</text>
<text text-anchor="middle" x="628.73" y="-299.3" font-family="sans-serif" font-size="10.00" fill="white">areas</text>
</g>
<!-- 5&#45;&gt;22 -->
<g id="edge53" class="edge">
<title>5&#45;&gt;22</title>
<path fill="none" stroke="#999999" stroke-width="1.5" d="M512.11,-679.3C531.77,-616.31 596.15,-410.01 619.33,-335.75"/>
<polygon fill="#999999" stroke="#999999" stroke-width="1.5" points="621.64,-336.54 621.39,-329.13 616.97,-335.08 621.64,-336.54"/>
</g>
<!-- 6 -->
<g id="node7" class="node">
<title>6</title>
<path fill="#3b745f" stroke="#80d856" stroke-width="0" d="M536.22,-1087.5C536.22,-1087.5 474.45,-1087.5 474.45,-1087.5 468.45,-1087.5 462.45,-1081.5 462.45,-1075.5 462.45,-1075.5 462.45,-1048.11 462.45,-1048.11 462.45,-1042.11 468.45,-1036.11 474.45,-1036.11 474.45,-1036.11 536.22,-1036.11 536.22,-1036.11 542.22,-1036.11 548.22,-1042.11 548.22,-1048.11 548.22,-1048.11 548.22,-1075.5 548.22,-1075.5 548.22,-1081.5 542.22,-1087.5 536.22,-1087.5"/>
<text text-anchor="middle" x="505.34" y="-1073.68" font-family="sans-serif" font-size="10.00" fill="white">download_gaez</text>
<text text-anchor="middle" x="505.34" y="-1059.43" font-family="sans-serif" font-size="10.00" fill="white">growing_season</text>
<text text-anchor="middle" x="505.34" y="-1045.18" font-family="sans-serif" font-size="10.00" fill="white">start</text>
</g>
<!-- 6&#45;&gt;3 -->
<g id="edge35" class="edge">
<title>6&#45;&gt;3</title>
<path fill="none" stroke="#999999" stroke-width="1.5" d="M548.12,-1041.84C562.2,-1035.11 577.8,-1027.66 591.43,-1021.15"/>
<polygon fill="#999999" stroke="#999999" stroke-width="1.5" points="592.32,-1023.44 597.58,-1018.21 590.21,-1019.02 592.32,-1023.44"/>
</g>
<!-- 7 -->
<g id="node8" class="node">
<title>7</title>
<path fill="#3b745f" stroke="#88d856" stroke-width="0" d="M536.22,-1014.5C536.22,-1014.5 474.45,-1014.5 474.45,-1014.5 468.45,-1014.5 462.45,-1008.5 462.45,-1002.5 462.45,-1002.5 462.45,-975.11 462.45,-975.11 462.45,-969.11 468.45,-963.11 474.45,-963.11 474.45,-963.11 536.22,-963.11 536.22,-963.11 542.22,-963.11 548.22,-969.11 548.22,-975.11 548.22,-975.11 548.22,-1002.5 548.22,-1002.5 548.22,-1008.5 542.22,-1014.5 536.22,-1014.5"/>
<text text-anchor="middle" x="505.34" y="-1000.68" font-family="sans-serif" font-size="10.00" fill="white">download_gaez</text>
<text text-anchor="middle" x="505.34" y="-986.43" font-family="sans-serif" font-size="10.00" fill="white">growing_season</text>
<text text-anchor="middle" x="505.34" y="-972.18" font-family="sans-serif" font-size="10.00" fill="white">length</text>
</g>
<!-- 7&#45;&gt;3 -->
<g id="edge37" class="edge">
<title>7&#45;&gt;3</title>
<path fill="none" stroke="#999999" stroke-width="1.5" d="M548.12,-993.96C561.94,-995.67 577.21,-997.56 590.65,-999.22"/>
<polygon fill="#999999" stroke="#999999" stroke-width="1.5" points="590.13,-1001.62 597.37,-1000.05 590.73,-996.76 590.13,-1001.62"/>
</g>
<!-- 8&#45;&gt;3 -->
<g id="edge34" class="edge">
<title>8&#45;&gt;3</title>
<path fill="none" stroke="#999999" stroke-width="1.5" d="M509.6,-380.03C517.98,-427.37 540.61,-558.17 554.6,-667.8 562.99,-733.58 553.44,-905.74 583.6,-964.8 586.22,-969.94 589.84,-974.71 593.87,-979.02"/>
<polygon fill="#999999" stroke="#999999" stroke-width="1.5" points="592.12,-980.73 598.85,-983.83 595.52,-977.21 592.12,-980.73"/>
</g>
<!-- 8&#45;&gt;22 -->
<g id="edge54" class="edge">
<title>8&#45;&gt;22</title>
<path fill="none" stroke="#999999" stroke-width="1.5" d="M548.8,-343.26C558.21,-339.15 568.27,-334.76 577.95,-330.54"/>
<polygon fill="#999999" stroke="#999999" stroke-width="1.5" points="578.81,-332.84 584.24,-327.79 576.85,-328.35 578.81,-332.84"/>
</g>
<!-- 31 -->
<g id="node32" class="node">
<title>31</title>
<path fill="#3b745f" stroke="#d87d56" stroke-width="0" d="M657.74,-682.37C657.74,-682.37 599.72,-682.37 599.72,-682.37 593.72,-682.37 587.72,-676.37 587.72,-670.37 587.72,-670.37 587.72,-657.23 587.72,-657.23 587.72,-651.23 593.72,-645.23 599.72,-645.23 599.72,-645.23 657.74,-645.23 657.74,-645.23 663.74,-645.23 669.74,-651.23 669.74,-657.23 669.74,-657.23 669.74,-670.37 669.74,-670.37 669.74,-676.37 663.74,-682.37 657.74,-682.37"/>
<text text-anchor="middle" x="628.73" y="-668.55" font-family="sans-serif" font-size="10.00" fill="white">build_grassland</text>
<text text-anchor="middle" x="628.73" y="-654.3" font-family="sans-serif" font-size="10.00" fill="white">yields</text>
</g>
<!-- 8&#45;&gt;31 -->
<g id="edge59" class="edge">
<title>8&#45;&gt;31</title>
<path fill="none" stroke="#999999" stroke-width="1.5" d="M513.75,-380.24C534.41,-431.64 592.73,-576.73 616.97,-637.02"/>
<polygon fill="#999999" stroke="#999999" stroke-width="1.5" points="614.69,-637.92 619.57,-643.5 619.24,-636.09 614.69,-637.92"/>
</g>
<!-- 37 -->
<g id="node38" class="node">
<title>37</title>
<path fill="#3b745f" stroke="#d87d56" stroke-width="0" d="M780.39,-1215.37C780.39,-1215.37 716.37,-1215.37 716.37,-1215.37 710.37,-1215.37 704.37,-1209.37 704.37,-1203.37 704.37,-1203.37 704.37,-1190.23 704.37,-1190.23 704.37,-1184.23 710.37,-1178.23 716.37,-1178.23 716.37,-1178.23 780.39,-1178.23 780.39,-1178.23 786.39,-1178.23 792.39,-1184.23 792.39,-1190.23 792.39,-1190.23 792.39,-1203.37 792.39,-1203.37 792.39,-1209.37 786.39,-1215.37 780.39,-1215.37"/>
<text text-anchor="middle" x="748.38" y="-1201.55" font-family="sans-serif" font-size="10.00" fill="white">build_luc_carbon</text>
<text text-anchor="middle" x="748.38" y="-1187.3" font-family="sans-serif" font-size="10.00" fill="white">coefficients</text>
</g>
<!-- 8&#45;&gt;37 -->
<g id="edge68" class="edge">
<title>8&#45;&gt;37</title>
<path fill="none" stroke="#999999" stroke-width="1.5" d="M509.24,-380.08C516.76,-427.54 537.52,-558.61 554.6,-667.8 567.6,-750.9 550.74,-777.38 583.6,-854.8 609.54,-915.91 648.1,-912.62 673.87,-973.8 707.71,-1054.14 655.76,-1094.44 702.87,-1167.8 703.84,-1169.31 704.92,-1170.77 706.09,-1172.16"/>
<polygon fill="#999999" stroke="#999999" stroke-width="1.5" points="704.27,-1173.79 710.96,-1176.99 707.72,-1170.32 704.27,-1173.79"/>
</g>
<!-- 38 -->
<g id="node39" class="node">
<title>38</title>
<path fill="#3b745f" stroke="#569ad8" stroke-width="0" d="M649.49,-1418.37C649.49,-1418.37 607.97,-1418.37 607.97,-1418.37 601.97,-1418.37 595.97,-1412.37 595.97,-1406.37 595.97,-1406.37 595.97,-1393.23 595.97,-1393.23 595.97,-1387.23 601.97,-1381.23 607.97,-1381.23 607.97,-1381.23 649.49,-1381.23 649.49,-1381.23 655.49,-1381.23 661.49,-1387.23 661.49,-1393.23 661.49,-1393.23 661.49,-1406.37 661.49,-1406.37 661.49,-1412.37 655.49,-1418.37 649.49,-1418.37"/>
<text text-anchor="middle" x="628.73" y="-1404.55" font-family="sans-serif" font-size="10.00" fill="white">prepare_luc</text>
<text text-anchor="middle" x="628.73" y="-1390.3" font-family="sans-serif" font-size="10.00" fill="white">inputs</text>
</g>
<!-- 8&#45;&gt;38 -->
<g id="edge71" class="edge">
<title>8&#45;&gt;38</title>
<path fill="none" stroke="#999999" stroke-width="1.5" d="M509.97,-380.34C519.11,-427.89 543.2,-558.14 554.6,-667.8 580.91,-920.99 543.07,-988.5 583.6,-1239.8 591.28,-1287.44 607.8,-1341.22 618.31,-1372.72"/>
<polygon fill="#999999" stroke="#999999" stroke-width="1.5" points="615.94,-1373.37 620.5,-1379.22 620.58,-1371.81 615.94,-1373.37"/>
</g>
<!-- 55 -->
<g id="node56" class="node">
<title>55</title>
<path fill="#3b745f" stroke="#56d8c9" stroke-width="0" d="M653.99,-153.37C653.99,-153.37 603.47,-153.37 603.47,-153.37 597.47,-153.37 591.47,-147.37 591.47,-141.37 591.47,-141.37 591.47,-128.23 591.47,-128.23 591.47,-122.23 597.47,-116.23 603.47,-116.23 603.47,-116.23 653.99,-116.23 653.99,-116.23 659.99,-116.23 665.99,-122.23 665.99,-128.23 665.99,-128.23 665.99,-141.37 665.99,-141.37 665.99,-147.37 659.99,-153.37 653.99,-153.37"/>
<text text-anchor="middle" x="628.73" y="-139.55" font-family="sans-serif" font-size="10.00" fill="white">plot_resource</text>
<text text-anchor="middle" x="628.73" y="-125.3" font-family="sans-serif" font-size="10.00" fill="white">classes_map</text>
</g>
<!-- 8&#45;&gt;55 -->
<g id="edge98" class="edge">
<title>8&#45;&gt;55</title>
<path fill="none" stroke="#999999" stroke-width="1.5" d="M519.35,-343.27C529.62,-328.2 543.95,-306.16 554.6,-285.8 570.01,-256.32 569.26,-246.82 583.6,-216.8 592.68,-197.8 603.95,-176.9 612.83,-160.95"/>
<polygon fill="#999999" stroke="#999999" stroke-width="1.5" points="614.83,-162.39 616.12,-155.08 610.56,-159.99 614.83,-162.39"/>
</g>
<!-- 8&#45;&gt;57 -->
<g id="edge103" class="edge">
<title>8&#45;&gt;57</title>
<path fill="none" stroke="#999999" stroke-width="1.5" d="M517.72,-343.4C530.94,-323.79 554.68,-293.58 583.6,-278.8 740.09,-198.82 958.13,-209.22 1051.03,-218.37"/>
<polygon fill="#999999" stroke="#999999" stroke-width="1.5" points="1050.68,-220.8 1057.89,-219.07 1051.18,-215.92 1050.68,-220.8"/>
</g>
<!-- 8&#45;&gt;58 -->
<g id="edge107" class="edge">
<title>8&#45;&gt;58</title>
<path fill="none" stroke="#999999" stroke-width="1.5" d="M553.9,-361.8C602.52,-361.8 680.22,-361.8 747.38,-361.8 747.38,-361.8 747.38,-361.8 870.52,-361.8 933.1,-361.8 1005.44,-361.8 1050.91,-361.8"/>
<polygon fill="#999999" stroke="#999999" stroke-width="1.5" points="1050.65,-364.25 1057.65,-361.8 1050.65,-359.35 1050.65,-364.25"/>
</g>
<!-- 9 -->
<g id="node10" class="node">
<title>9</title>
<path fill="#3b745f" stroke="#d89c56" stroke-width="0" d="M403.08,-547.8C403.08,-547.8 354.06,-547.8 354.06,-547.8 348.06,-547.8 342.06,-541.8 342.06,-535.8 342.06,-535.8 342.06,-523.8 342.06,-523.8 342.06,-517.8 348.06,-511.8 354.06,-511.8 354.06,-511.8 403.08,-511.8 403.08,-511.8 409.08,-511.8 415.08,-517.8 415.08,-523.8 415.08,-523.8 415.08,-535.8 415.08,-535.8 415.08,-541.8 409.08,-547.8 403.08,-547.8"/>
<text text-anchor="middle" x="378.57" y="-527.43" font-family="sans-serif" font-size="10.00" fill="white">build_regions</text>
</g>
<!-- 9&#45;&gt;2 -->
<g id="edge26" class="edge">
<title>9&#45;&gt;2</title>
<path fill="none" stroke="#999999" stroke-width="1.5" d="M410.13,-547.71C423.85,-555.25 440.45,-563.67 456.08,-569.8 528.51,-598.21 740.56,-605.15 793.89,-661.8 839.38,-710.12 860.35,-918.27 866.51,-992.98"/>
<polygon fill="#999999" stroke="#999999" stroke-width="1.5" points="864.03,-992.77 867.03,-999.55 868.91,-992.37 864.03,-992.77"/>
</g>
<!-- 9&#45;&gt;3 -->
<g id="edge38" class="edge">
<title>9&#45;&gt;3</title>
<path fill="none" stroke="#999999" stroke-width="1.5" d="M381.24,-547.61C387.73,-613.48 413.02,-842.52 456.08,-899.8 485.83,-939.38 512.44,-925.84 554.6,-951.8 568.68,-960.47 583.66,-970.89 596.38,-980.12"/>
<polygon fill="#999999" stroke="#999999" stroke-width="1.5" points="594.65,-981.9 601.74,-984.06 597.54,-977.94 594.65,-981.9"/>
</g>
<!-- 9&#45;&gt;8 -->
<g id="edge42" class="edge">
<title>9&#45;&gt;8</title>
<path fill="none" stroke="#999999" stroke-width="1.5" d="M390.21,-511.83C399.88,-495.44 414.52,-470.54 427.08,-448.8 440.12,-426.22 438.82,-417.35 456.08,-397.8 459.8,-393.59 464.09,-389.55 468.55,-385.81"/>
<polygon fill="#999999" stroke="#999999" stroke-width="1.5" points="469.89,-387.87 473.85,-381.6 466.84,-384.03 469.89,-387.87"/>
</g>
<!-- 9&#45;&gt;14 -->
<g id="edge48" class="edge">
<title>9&#45;&gt;14</title>
<path fill="none" stroke="#999999" stroke-width="1.5" d="M381.51,-547.5C388.54,-608.89 414.54,-811.56 456.08,-859.8 486.81,-895.49 512.59,-877.53 554.6,-898.8 570.49,-906.85 659.57,-963.55 710.9,-996.4"/>
<polygon fill="#999999" stroke="#999999" stroke-width="1.5" points="709.37,-998.32 716.58,-1000.04 712.01,-994.2 709.37,-998.32"/>
</g>
<!-- 9&#45;&gt;22 -->
<g id="edge56" class="edge">
<title>9&#45;&gt;22</title>
<path fill="none" stroke="#999999" stroke-width="1.5" d="M380.64,-512.07C384.06,-472.61 398.2,-377.43 456.08,-331.8 490.04,-305.03 540.01,-301.08 577.29,-302.76"/>
<polygon fill="#999999" stroke="#999999" stroke-width="1.5" points="577.08,-305.2 584.22,-303.16 577.37,-300.31 577.08,-305.2"/>
</g>
<!-- 9&#45;&gt;31 -->
<g id="edge60" class="edge">
<title>9&#45;&gt;31</title>
<path fill="none" stroke="#999999" stroke-width="1.5" d="M390.86,-547.7C404.13,-567.29 427.94,-598.23 456.08,-615.8 493.71,-639.3 543.02,-651.53 579.13,-657.75"/>
<polygon fill="#999999" stroke="#999999" stroke-width="1.5" points="578.47,-660.12 585.77,-658.83 579.26,-655.28 578.47,-660.12"/>
</g>
<!-- 9&#45;&gt;33 -->
<g id="edge65" class="edge">
<title>9&#45;&gt;33</title>
<path fill="none" stroke="#999999" stroke-width="1.5" d="M379.92,-547.66C382.29,-659.09 397.69,-1255.86 456.08,-1308.8 525.23,-1371.5 643.63,-1321.56 706.06,-1287.62"/>
<polygon fill="#999999" stroke="#999999" stroke-width="1.5" points="707.2,-1289.79 712.13,-1284.26 704.82,-1285.51 707.2,-1289.79"/>
</g>
<!-- 9&#45;&gt;37 -->
<g id="edge69" class="edge">
<title>9&#45;&gt;37</title>
<path fill="none" stroke="#999999" stroke-width="1.5" d="M380,-547.65C382.78,-656.43 400.01,-1227.17 456.08,-1277.8 529.01,-1343.65 584.11,-1279.76 673.87,-1239.8 686.49,-1234.18 699.69,-1226.94 711.37,-1220"/>
<polygon fill="#999999" stroke="#999999" stroke-width="1.5" points="712.52,-1222.17 717.24,-1216.45 709.98,-1217.98 712.52,-1222.17"/>
</g>
<!-- 47 -->
<g id="node48" class="node">
<title>47</title>
<path fill="#3b745f" stroke="#56a2d8" stroke-width="0" d="M898.53,-1355.37C898.53,-1355.37 840.51,-1355.37 840.51,-1355.37 834.51,-1355.37 828.51,-1349.37 828.51,-1343.37 828.51,-1343.37 828.51,-1330.23 828.51,-1330.23 828.51,-1324.23 834.51,-1318.23 840.51,-1318.23 840.51,-1318.23 898.53,-1318.23 898.53,-1318.23 904.53,-1318.23 910.53,-1324.23 910.53,-1330.23 910.53,-1330.23 910.53,-1343.37 910.53,-1343.37 910.53,-1349.37 904.53,-1355.37 898.53,-1355.37"/>
<text text-anchor="middle" x="869.52" y="-1341.55" font-family="sans-serif" font-size="10.00" fill="white">prepare_health</text>
<text text-anchor="middle" x="869.52" y="-1327.3" font-family="sans-serif" font-size="10.00" fill="white">costs</text>
</g>
<!-- 9&#45;&gt;47 -->
<g id="edge86" class="edge">
<title>9&#45;&gt;47</title>
<path fill="none" stroke="#999999" stroke-width="1.5" d="M380.48,-547.49C387.65,-686.76 435.55,-1601.66 456.08,-1620.8 488.11,-1650.66 512.38,-1632.42 554.6,-1620.8 614.08,-1604.44 636.01,-1598.51 673.87,-1549.8 701.75,-1513.94 673.77,-1486.68 702.87,-1451.8 731.91,-1417 760.05,-1435.96 793.89,-1405.8 811.37,-1390.22 805.67,-1377.67 822.89,-1361.8 823.21,-1361.51 823.53,-1361.22 823.85,-1360.94"/>
<polygon fill="#999999" stroke="#999999" stroke-width="1.5" points="825.32,-1362.9 829.31,-1356.65 822.29,-1359.04 825.32,-1362.9"/>
</g>
<!-- 9&#45;&gt;53 -->
<g id="edge95" class="edge">
<title>9&#45;&gt;53</title>
<path fill="none" stroke="#999999" stroke-width="1.5" d="M414.86,-524.13C514.99,-510.32 801.06,-487.16 916.16,-650.8 1065.54,-863.18 896.96,-1009.08 1048.68,-1219.8 1051.35,-1223.51 1054.65,-1226.84 1058.26,-1229.8"/>
<polygon fill="#999999" stroke="#999999" stroke-width="1.5" points="1056.55,-1231.59 1063.66,-1233.72 1059.43,-1227.63 1056.55,-1231.59"/>
</g>
<!-- 54 -->
<g id="node55" class="node">
<title>54</title>
<path fill="#3b745f" stroke="#56d8c1" stroke-width="0" d="M904.16,-51.8C904.16,-51.8 834.89,-51.8 834.89,-51.8 828.89,-51.8 822.89,-45.8 822.89,-39.8 822.89,-39.8 822.89,-27.8 822.89,-27.8 822.89,-21.8 828.89,-15.8 834.89,-15.8 834.89,-15.8 904.16,-15.8 904.16,-15.8 910.16,-15.8 916.16,-21.8 916.16,-27.8 916.16,-27.8 916.16,-39.8 916.16,-39.8 916.16,-45.8 910.16,-51.8 904.16,-51.8"/>
<text text-anchor="middle" x="869.52" y="-31.43" font-family="sans-serif" font-size="10.00" fill="white">plot_regions_map</text>
</g>
<!-- 9&#45;&gt;54 -->
<g id="edge97" class="edge">
<title>9&#45;&gt;54</title>
<path fill="none" stroke="#999999" stroke-width="1.5" d="M379.7,-511.95C380.66,-434.22 388.72,-126.47 456.08,-64.8 554.29,25.12 726.63,1.04 814.18,-19.07"/>
<polygon fill="#999999" stroke="#999999" stroke-width="1.5" points="813.56,-21.45 820.94,-20.67 814.69,-16.68 813.56,-21.45"/>
</g>
<!-- 9&#45;&gt;55 -->
<g id="edge99" class="edge">
<title>9&#45;&gt;55</title>
<path fill="none" stroke="#999999" stroke-width="1.5" d="M380.84,-512.11C385.9,-446.73 406.77,-219.95 456.08,-170.8 489.02,-137.97 543.77,-131.5 582.57,-131.62"/>
<polygon fill="#999999" stroke="#999999" stroke-width="1.5" points="582.27,-134.07 589.3,-131.73 582.35,-129.17 582.27,-134.07"/>
</g>
<!-- 9&#45;&gt;56 -->
<g id="edge100" class="edge">
<title>9&#45;&gt;56</title>
<path fill="none" stroke="#999999" stroke-width="1.5" d="M405.92,-511.98C420.11,-503.45 438.32,-494.16 456.08,-489.8 498.6,-479.36 510.83,-488.52 554.6,-489.8 658.27,-492.84 947.93,-453.91 1019.68,-528.8 1064.7,-575.79 1029.3,-1051.67 1048.68,-1113.8 1054.34,-1131.93 1065.35,-1150.09 1075.31,-1164.11"/>
<polygon fill="#999999" stroke="#999999" stroke-width="1.5" points="1073.24,-1165.42 1079.35,-1169.62 1077.19,-1162.53 1073.24,-1165.42"/>
</g>
<!-- 9&#45;&gt;57 -->
<g id="edge104" class="edge">
<title>9&#45;&gt;57</title>
<path fill="none" stroke="#999999" stroke-width="1.5" d="M380.37,-511.93C383.88,-441.33 400.43,-182.92 456.08,-127.8 624.62,39.12 950.53,-134.75 1059.4,-200.69"/>
<polygon fill="#999999" stroke="#999999" stroke-width="1.5" points="1057.97,-202.69 1065.22,-204.25 1060.53,-198.51 1057.97,-202.69"/>
</g>
<!-- 9&#45;&gt;58 -->
<g id="edge108" class="edge">
<title>9&#45;&gt;58</title>
<path fill="none" stroke="#999999" stroke-width="1.5" d="M381.02,-512.14C386.46,-450.98 407.8,-249.84 456.08,-211.8 550.44,-137.45 922.59,-286.98 1051.54,-342.33"/>
<polygon fill="#999999" stroke="#999999" stroke-width="1.5" points="1050.19,-344.41 1057.59,-344.93 1052.13,-339.91 1050.19,-344.41"/>
</g>
<!-- 9&#45;&gt;60 -->
<g id="edge111" class="edge">
<title>9&#45;&gt;60</title>
<path fill="none" stroke="#999999" stroke-width="1.5" d="M393.96,-512.13C413.77,-488.05 447.92,-447.46 456.08,-443.8 577,-389.53 1004.77,-468.14 1019.68,-482.8 1061.21,-523.65 1087.88,-943.9 1094.31,-1056.29"/>
<polygon fill="#999999" stroke="#999999" stroke-width="1.5" points="1091.85,-1056.2 1094.69,-1063.05 1096.74,-1055.92 1091.85,-1056.2"/>
</g>
<!-- 9&#45;&gt;62 -->
<g id="edge117" class="edge">
<title>9&#45;&gt;62</title>
<path fill="none" stroke="#999999" stroke-width="1.5" d="M380.51,-547.39C388.08,-687.85 439.01,-1622.69 456.08,-1645.8 504.64,-1711.55 546,-1711.8 627.73,-1711.8 627.73,-1711.8 627.73,-1711.8 870.52,-1711.8 943.11,-1711.8 1019.74,-1670.36 1062.29,-1643.11"/>
<polygon fill="#999999" stroke="#999999" stroke-width="1.5" points="1063.4,-1645.31 1067.93,-1639.44 1060.73,-1641.2 1063.4,-1645.31"/>
</g>
<!-- 63 -->
<g id="node64" class="node">
<title>63</title>
<path fill="#3b745f" stroke="#56d8a2" stroke-width="0" d="M1007.68,-1260.5C1007.68,-1260.5 957.16,-1260.5 957.16,-1260.5 951.16,-1260.5 945.16,-1254.5 945.16,-1248.5 945.16,-1248.5 945.16,-1221.11 945.16,-1221.11 945.16,-1215.11 951.16,-1209.11 957.16,-1209.11 957.16,-1209.11 1007.68,-1209.11 1007.68,-1209.11 1013.68,-1209.11 1019.68,-1215.11 1019.68,-1221.11 1019.68,-1221.11 1019.68,-1248.5 1019.68,-1248.5 1019.68,-1254.5 1013.68,-1260.5 1007.68,-1260.5"/>
<text text-anchor="middle" x="982.42" y="-1246.68" font-family="sans-serif" font-size="10.00" fill="white">plot_food</text>
<text text-anchor="middle" x="982.42" y="-1232.43" font-family="sans-serif" font-size="10.00" fill="white">consumption</text>
<text text-anchor="middle" x="982.42" y="-1218.18" font-family="sans-serif" font-size="10.00" fill="white">baseline_map</text>
</g>
<!-- 9&#45;&gt;63 -->
<g id="edge122" class="edge">
<title>9&#45;&gt;63</title>
<path fill="none" stroke="#999999" stroke-width="1.5" d="M415.01,-532.55C504.72,-540.19 737.64,-564.52 793.89,-614.8 884.5,-695.79 955.79,-1082 975.79,-1200.29"/>
<polygon fill="#999999" stroke="#999999" stroke-width="1.5" points="973.35,-1200.56 976.92,-1207.06 978.18,-1199.75 973.35,-1200.56"/>
</g>
<!-- 10 -->
<g id="node11" class="node">
<title>10</title>
<path fill="#3b745f" stroke="#566bd8" stroke-width="0" d="M286.81,-547.8C286.81,-547.8 233.29,-547.8 233.29,-547.8 227.29,-547.8 221.29,-541.8 221.29,-535.8 221.29,-535.8 221.29,-523.8 221.29,-523.8 221.29,-517.8 227.29,-511.8 233.29,-511.8 233.29,-511.8 286.81,-511.8 286.81,-511.8 292.81,-511.8 298.81,-517.8 298.81,-523.8 298.81,-523.8 298.81,-535.8 298.81,-535.8 298.81,-541.8 292.81,-547.8 286.81,-547.8"/>
<text text-anchor="middle" x="260.05" y="-527.43" font-family="sans-serif" font-size="10.00" fill="white">simplify_gadm</text>
</g>
<!-- 10&#45;&gt;9 -->
<g id="edge43" class="edge">
<title>10&#45;&gt;9</title>
<path fill="none" stroke="#999999" stroke-width="1.5" d="M298.56,-529.8C309.58,-529.8 321.75,-529.8 333.16,-529.8"/>
<polygon fill="#999999" stroke="#999999" stroke-width="1.5" points="332.84,-532.25 339.84,-529.8 332.84,-527.35 332.84,-532.25"/>
</g>
<!-- 11 -->
<g id="node12" class="node">
<title>11</title>
<path fill="#3b745f" stroke="#56d873" stroke-width="0" d="M178.04,-547.8C178.04,-547.8 128.27,-547.8 128.27,-547.8 122.27,-547.8 116.27,-541.8 116.27,-535.8 116.27,-535.8 116.27,-523.8 116.27,-523.8 116.27,-517.8 122.27,-511.8 128.27,-511.8 128.27,-511.8 178.04,-511.8 178.04,-511.8 184.04,-511.8 190.04,-517.8 190.04,-523.8 190.04,-523.8 190.04,-535.8 190.04,-535.8 190.04,-541.8 184.04,-547.8 178.04,-547.8"/>
<text text-anchor="middle" x="153.15" y="-527.43" font-family="sans-serif" font-size="10.00" fill="white">extract_adm1</text>
</g>
<!-- 11&#45;&gt;10 -->
<g id="edge44" class="edge">
<title>11&#45;&gt;10</title>
<path fill="none" stroke="#999999" stroke-width="1.5" d="M189.96,-529.8C197.3,-529.8 205.12,-529.8 212.76,-529.8"/>
<polygon fill="#999999" stroke="#999999" stroke-width="1.5" points="212.35,-532.25 219.35,-529.8 212.35,-527.35 212.35,-532.25"/>
</g>
<!-- 12 -->
<g id="node13" class="node">
<title>12</title>
<path fill="#3b745f" stroke="#8fd856" stroke-width="0" d="M75.27,-548.37C75.27,-548.37 12,-548.37 12,-548.37 6,-548.37 0,-542.37 0,-536.37 0,-536.37 0,-523.23 0,-523.23 0,-517.23 6,-511.23 12,-511.23 12,-511.23 75.27,-511.23 75.27,-511.23 81.27,-511.23 87.27,-517.23 87.27,-523.23 87.27,-523.23 87.27,-536.37 87.27,-536.37 87.27,-542.37 81.27,-548.37 75.27,-548.37"/>
<text text-anchor="middle" x="43.63" y="-534.55" font-family="sans-serif" font-size="10.00" fill="white">download_gadm</text>
<text text-anchor="middle" x="43.63" y="-520.3" font-family="sans-serif" font-size="10.00" fill="white">zip</text>
</g>
<!-- 12&#45;&gt;11 -->
<g id="edge45" class="edge">
<title>12&#45;&gt;11</title>
<path fill="none" stroke="#999999" stroke-width="1.5" d="M87.13,-529.8C93.83,-529.8 100.77,-529.8 107.52,-529.8"/>
<polygon fill="#999999" stroke="#999999" stroke-width="1.5" points="107.28,-532.25 114.28,-529.8 107.28,-527.35 107.28,-532.25"/>
</g>
<!-- 13 -->
<g id="node14" class="node">
<title>13</title>
<path fill="#3b745f" stroke="#70d856" stroke-width="0" d="M540.72,-1160.5C540.72,-1160.5 469.95,-1160.5 469.95,-1160.5 463.95,-1160.5 457.95,-1154.5 457.95,-1148.5 457.95,-1148.5 457.95,-1121.11 457.95,-1121.11 457.95,-1115.11 463.95,-1109.11 469.95,-1109.11 469.95,-1109.11 540.72,-1109.11 540.72,-1109.11 546.72,-1109.11 552.72,-1115.11 552.72,-1121.11 552.72,-1121.11 552.72,-1148.5 552.72,-1148.5 552.72,-1154.5 546.72,-1160.5 540.72,-1160.5"/>
<text text-anchor="middle" x="505.34" y="-1146.68" font-family="sans-serif" font-size="10.00" fill="white">download_gaez</text>
<text text-anchor="middle" x="505.34" y="-1132.43" font-family="sans-serif" font-size="10.00" fill="white">water</text>
<text text-anchor="middle" x="505.34" y="-1118.18" font-family="sans-serif" font-size="10.00" fill="white">requirement_data</text>
</g>
<!-- 13&#45;&gt;3 -->
<g id="edge39" class="edge">
<title>13&#45;&gt;3</title>
<path fill="none" stroke="#999999" stroke-width="1.5" d="M542.82,-1109.3C546.93,-1105.93 550.95,-1102.4 554.6,-1098.8 566.38,-1087.2 591.69,-1053.43 609.21,-1029.47"/>
<polygon fill="#999999" stroke="#999999" stroke-width="1.5" points="611.12,-1031.01 613.26,-1023.9 607.16,-1028.12 611.12,-1031.01"/>
</g>
<!-- 14&#45;&gt;2 -->
<g id="edge29" class="edge">
<title>14&#45;&gt;2</title>
<path fill="none" stroke="#999999" stroke-width="1.5" d="M786.75,-1019.8C799.38,-1019.8 813.57,-1019.8 826.53,-1019.8"/>
<polygon fill="#999999" stroke="#999999" stroke-width="1.5" points="826.45,-1022.25 833.45,-1019.8 826.45,-1017.35 826.45,-1022.25"/>
</g>
<!-- 15 -->
<g id="node16" class="node">
<title>15</title>
<path fill="#3b745f" stroke="#61d856" stroke-width="0" d="M538.1,-1266.37C538.1,-1266.37 472.58,-1266.37 472.58,-1266.37 466.58,-1266.37 460.58,-1260.37 460.58,-1254.37 460.58,-1254.37 460.58,-1241.23 460.58,-1241.23 460.58,-1235.23 466.58,-1229.23 472.58,-1229.23 472.58,-1229.23 538.1,-1229.23 538.1,-1229.23 544.1,-1229.23 550.1,-1235.23 550.1,-1241.23 550.1,-1241.23 550.1,-1254.37 550.1,-1254.37 550.1,-1260.37 544.1,-1266.37 538.1,-1266.37"/>
<text text-anchor="middle" x="505.34" y="-1252.55" font-family="sans-serif" font-size="10.00" fill="white">download_gleam</text>
<text text-anchor="middle" x="505.34" y="-1238.3" font-family="sans-serif" font-size="10.00" fill="white">supplement</text>
</g>
<!-- 15&#45;&gt;14 -->
<g id="edge46" class="edge">
<title>15&#45;&gt;14</title>
<path fill="none" stroke="#999999" stroke-width="1.5" d="M533.12,-1229.26C540.32,-1223.89 547.95,-1217.85 554.6,-1211.8 568.8,-1198.89 570.67,-1193.98 583.6,-1179.8 636.43,-1121.86 643.44,-1100.96 702.87,-1049.8 705.35,-1047.67 707.98,-1045.56 710.68,-1043.5"/>
<polygon fill="#999999" stroke="#999999" stroke-width="1.5" points="711.88,-1045.66 716.09,-1039.56 708.99,-1041.7 711.88,-1045.66"/>
</g>
<!-- 20 -->
<g id="node21" class="node">
<title>20</title>
<path fill="#3b745f" stroke="#56a9d8" stroke-width="0" d="M659.99,-1228.37C659.99,-1228.37 597.47,-1228.37 597.47,-1228.37 591.47,-1228.37 585.47,-1222.37 585.47,-1216.37 585.47,-1216.37 585.47,-1203.23 585.47,-1203.23 585.47,-1197.23 591.47,-1191.23 597.47,-1191.23 597.47,-1191.23 659.99,-1191.23 659.99,-1191.23 665.99,-1191.23 671.99,-1197.23 671.99,-1203.23 671.99,-1203.23 671.99,-1216.37 671.99,-1216.37 671.99,-1222.37 665.99,-1228.37 659.99,-1228.37"/>
<text text-anchor="middle" x="628.73" y="-1214.55" font-family="sans-serif" font-size="10.00" fill="white">prepare_gleam</text>
<text text-anchor="middle" x="628.73" y="-1200.3" font-family="sans-serif" font-size="10.00" fill="white">feed_properties</text>
</g>
<!-- 15&#45;&gt;20 -->
<g id="edge52" class="edge">
<title>15&#45;&gt;20</title>
<path fill="none" stroke="#999999" stroke-width="1.5" d="M549.82,-1234.19C558.69,-1231.41 568.09,-1228.47 577.18,-1225.63"/>
<polygon fill="#999999" stroke="#999999" stroke-width="1.5" points="577.66,-1228.04 583.61,-1223.61 576.2,-1223.37 577.66,-1228.04"/>
</g>
<!-- 16 -->
<g id="node17" class="node">
<title>16</title>
<path fill="#3b745f" stroke="#d8ac56" stroke-width="0" d="M775.89,-755.37C775.89,-755.37 720.87,-755.37 720.87,-755.37 714.87,-755.37 708.87,-749.37 708.87,-743.37 708.87,-743.37 708.87,-730.23 708.87,-730.23 708.87,-724.23 714.87,-718.23 720.87,-718.23 720.87,-718.23 775.89,-718.23 775.89,-718.23 781.89,-718.23 787.89,-724.23 787.89,-730.23 787.89,-730.23 787.89,-743.37 787.89,-743.37 787.89,-749.37 781.89,-755.37 775.89,-755.37"/>
<text text-anchor="middle" x="748.38" y="-741.55" font-family="sans-serif" font-size="10.00" fill="white">derive_global</text>
<text text-anchor="middle" x="748.38" y="-727.3" font-family="sans-serif" font-size="10.00" fill="white">fertilizer_rates</text>
</g>
<!-- 16&#45;&gt;2 -->
<g id="edge33" class="edge">
<title>16&#45;&gt;2</title>
<path fill="none" stroke="#999999" stroke-width="1.5" d="M783.67,-755.37C787.49,-758.47 791.03,-761.95 793.89,-765.8 846.35,-836.33 862.08,-943.24 866.69,-992.81"/>
<polygon fill="#999999" stroke="#999999" stroke-width="1.5" points="864.23,-992.9 867.27,-999.67 869.12,-992.49 864.23,-992.9"/>
</g>
<!-- 17 -->
<g id="node18" class="node">
<title>17</title>
<path fill="#3b745f" stroke="#56c1d8" stroke-width="0" d="M647.24,-769.62C647.24,-769.62 610.22,-769.62 610.22,-769.62 604.22,-769.62 598.22,-763.62 598.22,-757.62 598.22,-757.62 598.22,-715.98 598.22,-715.98 598.22,-709.98 604.22,-703.98 610.22,-703.98 610.22,-703.98 647.24,-703.98 647.24,-703.98 653.24,-703.98 659.24,-709.98 659.24,-715.98 659.24,-715.98 659.24,-757.62 659.24,-757.62 659.24,-763.62 653.24,-769.62 647.24,-769.62"/>
<text text-anchor="middle" x="628.73" y="-755.8" font-family="sans-serif" font-size="10.00" fill="white">prepare</text>
<text text-anchor="middle" x="628.73" y="-741.55" font-family="sans-serif" font-size="10.00" fill="white">fertilizer</text>
<text text-anchor="middle" x="628.73" y="-727.3" font-family="sans-serif" font-size="10.00" fill="white">application</text>
<text text-anchor="middle" x="628.73" y="-713.05" font-family="sans-serif" font-size="10.00" fill="white">rates</text>
</g>
<!-- 17&#45;&gt;16 -->
<g id="edge49" class="edge">
<title>17&#45;&gt;16</title>
<path fill="none" stroke="#999999" stroke-width="1.5" d="M659.12,-736.8C671.51,-736.8 686.26,-736.8 700.11,-736.8"/>
<polygon fill="#999999" stroke="#999999" stroke-width="1.5" points="699.78,-739.25 706.78,-736.8 699.78,-734.35 699.78,-739.25"/>
</g>
<!-- 18 -->
<g id="node19" class="node">
<title>18</title>
<path fill="#3b745f" stroke="#59d856" stroke-width="0" d="M529.47,-848.37C529.47,-848.37 481.2,-848.37 481.2,-848.37 475.2,-848.37 469.2,-842.37 469.2,-836.37 469.2,-836.37 469.2,-823.23 469.2,-823.23 469.2,-817.23 475.2,-811.23 481.2,-811.23 481.2,-811.23 529.47,-811.23 529.47,-811.23 535.47,-811.23 541.47,-817.23 541.47,-823.23 541.47,-823.23 541.47,-836.37 541.47,-836.37 541.47,-842.37 535.47,-848.37 529.47,-848.37"/>
<text text-anchor="middle" x="505.34" y="-834.55" font-family="sans-serif" font-size="10.00" fill="white">download_ifa</text>
<text text-anchor="middle" x="505.34" y="-820.3" font-family="sans-serif" font-size="10.00" fill="white">fubc</text>
</g>
<!-- 18&#45;&gt;17 -->
<g id="edge50" class="edge">
<title>18&#45;&gt;17</title>
<path fill="none" stroke="#999999" stroke-width="1.5" d="M539.04,-811.23C544.35,-807.91 549.7,-804.37 554.6,-800.8 567.25,-791.58 580.34,-780.63 591.88,-770.43"/>
<polygon fill="#999999" stroke="#999999" stroke-width="1.5" points="593.21,-772.53 596.8,-766.03 589.95,-768.87 593.21,-772.53"/>
</g>
<!-- 19 -->
<g id="node20" class="node">
<title>19</title>
<path fill="#3b745f" stroke="#d89c56" stroke-width="0" d="M781.89,-1096.8C781.89,-1096.8 714.87,-1096.8 714.87,-1096.8 708.87,-1096.8 702.87,-1090.8 702.87,-1084.8 702.87,-1084.8 702.87,-1072.8 702.87,-1072.8 702.87,-1066.8 708.87,-1060.8 714.87,-1060.8 714.87,-1060.8 781.89,-1060.8 781.89,-1060.8 787.89,-1060.8 793.89,-1066.8 793.89,-1072.8 793.89,-1072.8 793.89,-1084.8 793.89,-1084.8 793.89,-1090.8 787.89,-1096.8 781.89,-1096.8"/>
<text text-anchor="middle" x="748.38" y="-1076.43" font-family="sans-serif" font-size="10.00" fill="white">categorize_feeds</text>
</g>
<!-- 19&#45;&gt;2 -->
<g id="edge28" class="edge">
<title>19&#45;&gt;2</title>
<path fill="none" stroke="#999999" stroke-width="1.5" d="M785.45,-1060.94C798.72,-1054.37 813.85,-1046.88 827.52,-1040.1"/>
<polygon fill="#999999" stroke="#999999" stroke-width="1.5" points="828.6,-1042.31 833.79,-1037 826.43,-1037.91 828.6,-1042.31"/>
</g>
<!-- 20&#45;&gt;19 -->
<g id="edge51" class="edge">
<title>20&#45;&gt;19</title>
<path fill="none" stroke="#999999" stroke-width="1.5" d="M640.11,-1191.29C652.91,-1169.55 676.26,-1133.25 702.87,-1107.8 704.94,-1105.83 707.15,-1103.9 709.46,-1102.05"/>
<polygon fill="#999999" stroke="#999999" stroke-width="1.5" points="710.62,-1104.24 714.74,-1098.08 707.67,-1100.32 710.62,-1104.24"/>
</g>
<!-- 21 -->
<g id="node22" class="node">
<title>21</title>
<path fill="#3b745f" stroke="#566bd8" stroke-width="0" d="M773.64,-1156.37C773.64,-1156.37 723.12,-1156.37 723.12,-1156.37 717.12,-1156.37 711.12,-1150.37 711.12,-1144.37 711.12,-1144.37 711.12,-1131.23 711.12,-1131.23 711.12,-1125.23 717.12,-1119.23 723.12,-1119.23 723.12,-1119.23 773.64,-1119.23 773.64,-1119.23 779.64,-1119.23 785.64,-1125.23 785.64,-1131.23 785.64,-1131.23 785.64,-1144.37 785.64,-1144.37 785.64,-1150.37 779.64,-1156.37 773.64,-1156.37"/>
<text text-anchor="middle" x="748.38" y="-1142.55" font-family="sans-serif" font-size="10.00" fill="white">retrieve_usda</text>
<text text-anchor="middle" x="748.38" y="-1128.3" font-family="sans-serif" font-size="10.00" fill="white">nutrition</text>
</g>
<!-- 21&#45;&gt;2 -->
<g id="edge19" class="edge">
<title>21&#45;&gt;2</title>
<path fill="none" stroke="#999999" stroke-width="1.5" d="M778.97,-1119.53C784.13,-1115.89 789.31,-1111.9 793.89,-1107.8 815.37,-1088.57 836.28,-1063.16 850.48,-1044.58"/>
<polygon fill="#999999" stroke="#999999" stroke-width="1.5" points="852.14,-1046.46 854.4,-1039.39 848.22,-1043.51 852.14,-1046.46"/>
</g>
<!-- 22&#45;&gt;2 -->
<g id="edge27" class="edge">
<title>22&#45;&gt;2</title>
<path fill="none" stroke="#999999" stroke-width="1.5" d="M642,-327.25C672.6,-374.14 752.78,-502.58 793.89,-620.8 840.88,-755.94 860.28,-927.67 866.3,-992.97"/>
<polygon fill="#999999" stroke="#999999" stroke-width="1.5" points="863.82,-992.8 866.89,-999.55 868.7,-992.36 863.82,-992.8"/>
</g>
<!-- 22&#45;&gt;57 -->
<g id="edge102" class="edge">
<title>22&#45;&gt;57</title>
<path fill="none" stroke="#999999" stroke-width="1.5" d="M671.1,-301.26C758.44,-285.33 961.03,-248.38 1051.18,-231.94"/>
<polygon fill="#999999" stroke="#999999" stroke-width="1.5" points="1051.38,-234.4 1057.82,-230.73 1050.5,-229.58 1051.38,-234.4"/>
</g>
<!-- 22&#45;&gt;58 -->
<g id="edge106" class="edge">
<title>22&#45;&gt;58</title>
<path fill="none" stroke="#999999" stroke-width="1.5" d="M671.22,-310.89C742.7,-314.87 893.58,-324.99 1019.68,-344.8 1029.82,-346.39 1040.63,-348.54 1050.83,-350.76"/>
<polygon fill="#999999" stroke="#999999" stroke-width="1.5" points="1050.01,-353.09 1057.38,-352.23 1051.08,-348.31 1050.01,-353.09"/>
</g>
<!-- 23 -->
<g id="node24" class="node">
<title>23</title>
<path fill="#3b745f" stroke="#78d856" stroke-width="0" d="M534.35,-274.5C534.35,-274.5 476.33,-274.5 476.33,-274.5 470.33,-274.5 464.33,-268.5 464.33,-262.5 464.33,-262.5 464.33,-235.11 464.33,-235.11 464.33,-229.11 470.33,-223.11 476.33,-223.11 476.33,-223.11 534.35,-223.11 534.35,-223.11 540.35,-223.11 546.35,-229.11 546.35,-235.11 546.35,-235.11 546.35,-262.5 546.35,-262.5 546.35,-268.5 540.35,-274.5 534.35,-274.5"/>
<text text-anchor="middle" x="505.34" y="-260.68" font-family="sans-serif" font-size="10.00" fill="white">download_gaez</text>
<text text-anchor="middle" x="505.34" y="-246.43" font-family="sans-serif" font-size="10.00" fill="white">irrigated</text>
<text text-anchor="middle" x="505.34" y="-232.18" font-family="sans-serif" font-size="10.00" fill="white">landshare_map</text>
</g>
<!-- 23&#45;&gt;22 -->
<g id="edge55" class="edge">
<title>23&#45;&gt;22</title>
<path fill="none" stroke="#999999" stroke-width="1.5" d="M546.09,-268.45C557.66,-274.17 570.39,-280.46 582.29,-286.34"/>
<polygon fill="#999999" stroke="#999999" stroke-width="1.5" points="580.97,-288.42 588.33,-289.33 583.14,-284.03 580.97,-288.42"/>
</g>
<!-- 24 -->
<g id="node25" class="node">
<title>24</title>
<path fill="#3b745f" stroke="#56c9d8" stroke-width="0" d="M775.89,-814.37C775.89,-814.37 720.87,-814.37 720.87,-814.37 714.87,-814.37 708.87,-808.37 708.87,-802.37 708.87,-802.37 708.87,-789.23 708.87,-789.23 708.87,-783.23 714.87,-777.23 720.87,-777.23 720.87,-777.23 775.89,-777.23 775.89,-777.23 781.89,-777.23 787.89,-783.23 787.89,-789.23 787.89,-789.23 787.89,-802.37 787.89,-802.37 787.89,-808.37 781.89,-814.37 775.89,-814.37"/>
<text text-anchor="middle" x="748.38" y="-800.55" font-family="sans-serif" font-size="10.00" fill="white">prepare_fao</text>
<text text-anchor="middle" x="748.38" y="-786.3" font-family="sans-serif" font-size="10.00" fill="white">edible_portion</text>
</g>
<!-- 24&#45;&gt;2 -->
<g id="edge31" class="edge">
<title>24&#45;&gt;2</title>
<path fill="none" stroke="#999999" stroke-width="1.5" d="M776.89,-814.37C783.06,-819.48 789.18,-825.4 793.89,-831.8 831.36,-882.73 853.05,-955.03 862.61,-993.43"/>
<polygon fill="#999999" stroke="#999999" stroke-width="1.5" points="860.12,-993.56 864.15,-999.78 864.88,-992.4 860.12,-993.56"/>
</g>
<!-- 25 -->
<g id="node26" class="node">
<title>25</title>
<path fill="#3b745f" stroke="#9fd856" stroke-width="0" d="M661.87,-843.5C661.87,-843.5 595.6,-843.5 595.6,-843.5 589.6,-843.5 583.6,-837.5 583.6,-831.5 583.6,-831.5 583.6,-804.11 583.6,-804.11 583.6,-798.11 589.6,-792.11 595.6,-792.11 595.6,-792.11 661.87,-792.11 661.87,-792.11 667.87,-792.11 673.87,-798.11 673.87,-804.11 673.87,-804.11 673.87,-831.5 673.87,-831.5 673.87,-837.5 667.87,-843.5 661.87,-843.5"/>
<text text-anchor="middle" x="628.73" y="-829.68" font-family="sans-serif" font-size="10.00" fill="white">download_fao</text>
<text text-anchor="middle" x="628.73" y="-815.43" font-family="sans-serif" font-size="10.00" fill="white">nutrient</text>
<text text-anchor="middle" x="628.73" y="-801.18" font-family="sans-serif" font-size="10.00" fill="white">conversion_table</text>
</g>
<!-- 25&#45;&gt;24 -->
<g id="edge57" class="edge">
<title>25&#45;&gt;24</title>
<path fill="none" stroke="#999999" stroke-width="1.5" d="M673.54,-809.61C682.17,-808 691.26,-806.3 700.01,-804.66"/>
<polygon fill="#999999" stroke="#999999" stroke-width="1.5" points="700.29,-807.1 706.72,-803.4 699.39,-802.28 700.29,-807.1"/>
</g>
<!-- 26 -->
<g id="node27" class="node">
<title>26</title>
<path fill="#3b745f" stroke="#5692d8" stroke-width="0" d="M766.89,-1677.37C766.89,-1677.37 729.87,-1677.37 729.87,-1677.37 723.87,-1677.37 717.87,-1671.37 717.87,-1665.37 717.87,-1665.37 717.87,-1652.23 717.87,-1652.23 717.87,-1646.23 723.87,-1640.23 729.87,-1640.23 729.87,-1640.23 766.89,-1640.23 766.89,-1640.23 772.89,-1640.23 778.89,-1646.23 778.89,-1652.23 778.89,-1652.23 778.89,-1665.37 778.89,-1665.37 778.89,-1671.37 772.89,-1677.37 766.89,-1677.37"/>
<text text-anchor="middle" x="748.38" y="-1663.55" font-family="sans-serif" font-size="10.00" fill="white">prepare</text>
<text text-anchor="middle" x="748.38" y="-1649.3" font-family="sans-serif" font-size="10.00" fill="white">population</text>
</g>
<!-- 26&#45;&gt;1 -->
<g id="edge15" class="edge">
<title>26&#45;&gt;1</title>
<path fill="none" stroke="#999999" stroke-width="1.5" d="M778.44,-1644.44C784.27,-1640.4 789.84,-1635.52 793.89,-1629.8 825.35,-1585.38 790.96,-1554.89 822.89,-1510.8 851.52,-1471.26 877.3,-1482.34 916.16,-1452.8 930.5,-1441.9 945.37,-1428.43 957.28,-1417.01"/>
<polygon fill="#999999" stroke="#999999" stroke-width="1.5" points="958.98,-1418.78 962.3,-1412.14 955.57,-1415.26 958.98,-1418.78"/>
</g>
<!-- 26&#45;&gt;2 -->
<g id="edge23" class="edge">
<title>26&#45;&gt;2</title>
<path fill="none" stroke="#999999" stroke-width="1.5" d="M778.63,-1645.18C784.6,-1641.07 790.18,-1635.97 793.89,-1629.8 831.03,-1568.04 814,-1378.32 822.89,-1306.8 834.84,-1210.61 854.56,-1097.16 863.65,-1046.53"/>
<polygon fill="#999999" stroke="#999999" stroke-width="1.5" points="866.04,-1047.1 864.87,-1039.78 861.21,-1046.23 866.04,-1047.1"/>
</g>
<!-- 26&#45;&gt;47 -->
<g id="edge87" class="edge">
<title>26&#45;&gt;47</title>
<path fill="none" stroke="#999999" stroke-width="1.5" d="M778.53,-1645.12C784.5,-1641.01 790.11,-1635.92 793.89,-1629.8 854.25,-1531.98 767.01,-1473.25 822.89,-1372.8 825.16,-1368.72 828.11,-1364.93 831.4,-1361.47"/>
<polygon fill="#999999" stroke="#999999" stroke-width="1.5" points="832.99,-1363.34 836.44,-1356.78 829.65,-1359.76 832.99,-1363.34"/>
</g>
<!-- 26&#45;&gt;52 -->
<g id="edge90" class="edge">
<title>26&#45;&gt;52</title>
<path fill="none" stroke="#999999" stroke-width="1.5" d="M778.66,-1641.71C783.96,-1638.07 789.27,-1634.04 793.89,-1629.8 809.29,-1615.69 806.41,-1605.64 822.89,-1592.8 893.54,-1537.78 993.12,-1501.92 1050.42,-1484.41"/>
<polygon fill="#999999" stroke="#999999" stroke-width="1.5" points="1051.07,-1486.77 1057.07,-1482.41 1049.66,-1482.08 1051.07,-1486.77"/>
</g>
<!-- 26&#45;&gt;53 -->
<g id="edge93" class="edge">
<title>26&#45;&gt;53</title>
<path fill="none" stroke="#999999" stroke-width="1.5" d="M778.78,-1644.66C784.59,-1640.62 790.06,-1635.67 793.89,-1629.8 837.64,-1562.64 774.09,-1515.39 822.89,-1451.8 850.57,-1415.74 881.85,-1439.63 916.16,-1409.8 934.4,-1393.94 928.63,-1381.43 945.16,-1363.8 973.13,-1333.96 989.22,-1337.1 1019.68,-1309.8 1033.97,-1296.99 1033.91,-1290.06 1048.68,-1277.8 1051.59,-1275.38 1054.72,-1273.02 1057.93,-1270.76"/>
<polygon fill="#999999" stroke="#999999" stroke-width="1.5" points="1059.18,-1272.87 1063.63,-1266.94 1056.45,-1268.8 1059.18,-1272.87"/>
</g>
<!-- 26&#45;&gt;61 -->
<g id="edge113" class="edge">
<title>26&#45;&gt;61</title>
<path fill="none" stroke="#999999" stroke-width="1.5" d="M778.62,-1648C839.75,-1625.41 981.34,-1573.1 1052.84,-1546.68"/>
<polygon fill="#999999" stroke="#999999" stroke-width="1.5" points="1053.36,-1549.1 1059.08,-1544.38 1051.66,-1544.5 1053.36,-1549.1"/>
</g>
<!-- 26&#45;&gt;62 -->
<g id="edge115" class="edge">
<title>26&#45;&gt;62</title>
<path fill="none" stroke="#999999" stroke-width="1.5" d="M778.62,-1655.51C836.3,-1649.02 965.62,-1634.46 1040.1,-1626.07"/>
<polygon fill="#999999" stroke="#999999" stroke-width="1.5" points="1039.96,-1628.55 1046.65,-1625.34 1039.42,-1623.69 1039.96,-1628.55"/>
</g>
<!-- 26&#45;&gt;63 -->
<g id="edge119" class="edge">
<title>26&#45;&gt;63</title>
<path fill="none" stroke="#999999" stroke-width="1.5" d="M778.88,-1644.73C784.69,-1640.68 790.14,-1635.72 793.89,-1629.8 844.57,-1549.85 769.49,-1496.96 822.89,-1418.8 849.66,-1379.61 883.44,-1401.18 916.16,-1366.8 930.5,-1351.74 952.97,-1302.5 967.45,-1268.61"/>
<polygon fill="#999999" stroke="#999999" stroke-width="1.5" points="969.59,-1269.85 970.06,-1262.45 965.07,-1267.94 969.59,-1269.85"/>
</g>
<!-- 27 -->
<g id="node28" class="node">
<title>27</title>
<path fill="#3b745f" stroke="#56d86b" stroke-width="0" d="M656.99,-1661.37C656.99,-1661.37 600.47,-1661.37 600.47,-1661.37 594.47,-1661.37 588.47,-1655.37 588.47,-1649.37 588.47,-1649.37 588.47,-1636.23 588.47,-1636.23 588.47,-1630.23 594.47,-1624.23 600.47,-1624.23 600.47,-1624.23 656.99,-1624.23 656.99,-1624.23 662.99,-1624.23 668.99,-1630.23 668.99,-1636.23 668.99,-1636.23 668.99,-1649.37 668.99,-1649.37 668.99,-1655.37 662.99,-1661.37 656.99,-1661.37"/>
<text text-anchor="middle" x="628.73" y="-1647.55" font-family="sans-serif" font-size="10.00" fill="white">download_wpp</text>
<text text-anchor="middle" x="628.73" y="-1633.3" font-family="sans-serif" font-size="10.00" fill="white">population</text>
</g>
<!-- 27&#45;&gt;26 -->
<g id="edge58" class="edge">
<title>27&#45;&gt;26</title>
<path fill="none" stroke="#999999" stroke-width="1.5" d="M668.91,-1648.13C681.82,-1649.88 696.15,-1651.83 709,-1653.58"/>
<polygon fill="#999999" stroke="#999999" stroke-width="1.5" points="708.54,-1655.99 715.8,-1654.51 709.2,-1651.14 708.54,-1655.99"/>
</g>
<!-- 50 -->
<g id="node51" class="node">
<title>50</title>
<path fill="#3b745f" stroke="#56a2d8" stroke-width="0" d="M769.89,-1618.37C769.89,-1618.37 726.87,-1618.37 726.87,-1618.37 720.87,-1618.37 714.87,-1612.37 714.87,-1606.37 714.87,-1606.37 714.87,-1593.23 714.87,-1593.23 714.87,-1587.23 720.87,-1581.23 726.87,-1581.23 726.87,-1581.23 769.89,-1581.23 769.89,-1581.23 775.89,-1581.23 781.89,-1587.23 781.89,-1593.23 781.89,-1593.23 781.89,-1606.37 781.89,-1606.37 781.89,-1612.37 775.89,-1618.37 769.89,-1618.37"/>
<text text-anchor="middle" x="748.38" y="-1604.55" font-family="sans-serif" font-size="10.00" fill="white">prepare_life</text>
<text text-anchor="middle" x="748.38" y="-1590.3" font-family="sans-serif" font-size="10.00" fill="white">table</text>
</g>
<!-- 27&#45;&gt;50 -->
<g id="edge88" class="edge">
<title>27&#45;&gt;50</title>
<path fill="none" stroke="#999999" stroke-width="1.5" d="M668.91,-1628.48C680.96,-1624.08 694.25,-1619.22 706.41,-1614.77"/>
<polygon fill="#999999" stroke="#999999" stroke-width="1.5" points="707.17,-1617.11 712.91,-1612.4 705.49,-1612.5 707.17,-1617.11"/>
</g>
<!-- 28 -->
<g id="node29" class="node">
<title>28</title>
<path fill="#3b745f" stroke="#56b1d8" stroke-width="0" d="M775.14,-1394.37C775.14,-1394.37 721.62,-1394.37 721.62,-1394.37 715.62,-1394.37 709.62,-1388.37 709.62,-1382.37 709.62,-1382.37 709.62,-1369.23 709.62,-1369.23 709.62,-1363.23 715.62,-1357.23 721.62,-1357.23 721.62,-1357.23 775.14,-1357.23 775.14,-1357.23 781.14,-1357.23 787.14,-1363.23 787.14,-1369.23 787.14,-1369.23 787.14,-1382.37 787.14,-1382.37 787.14,-1388.37 781.14,-1394.37 775.14,-1394.37"/>
<text text-anchor="middle" x="748.38" y="-1380.55" font-family="sans-serif" font-size="10.00" fill="white">prepare_gdd</text>
<text text-anchor="middle" x="748.38" y="-1366.3" font-family="sans-serif" font-size="10.00" fill="white">dietary_intake</text>
</g>
<!-- 28&#45;&gt;2 -->
<g id="edge24" class="edge">
<title>28&#45;&gt;2</title>
<path fill="none" stroke="#999999" stroke-width="1.5" d="M778.04,-1357.32C784.03,-1352.28 789.77,-1346.37 793.89,-1339.8 809.66,-1314.65 849.13,-1118.84 863.33,-1046.52"/>
<polygon fill="#999999" stroke="#999999" stroke-width="1.5" points="865.71,-1047.12 864.65,-1039.78 860.9,-1046.18 865.71,-1047.12"/>
</g>
<!-- 28&#45;&gt;47 -->
<g id="edge84" class="edge">
<title>28&#45;&gt;47</title>
<path fill="none" stroke="#999999" stroke-width="1.5" d="M787.08,-1363.46C797.51,-1360.05 808.99,-1356.29 819.95,-1352.7"/>
<polygon fill="#999999" stroke="#999999" stroke-width="1.5" points="820.55,-1355.08 826.45,-1350.58 819.03,-1350.42 820.55,-1355.08"/>
</g>
<!-- 28&#45;&gt;63 -->
<g id="edge120" class="edge">
<title>28&#45;&gt;63</title>
<path fill="none" stroke="#999999" stroke-width="1.5" d="M773.58,-1357.46C780.35,-1352 787.58,-1345.86 793.89,-1339.8 807.98,-1326.28 807.21,-1318.43 822.89,-1306.8 857.77,-1280.93 903.43,-1261.43 936.78,-1249.28"/>
<polygon fill="#999999" stroke="#999999" stroke-width="1.5" points="937.5,-1251.63 943.27,-1246.97 935.86,-1247.01 937.5,-1251.63"/>
</g>
<!-- 29 -->
<g id="node30" class="node">
<title>29</title>
<path fill="#3b745f" stroke="#56c1d8" stroke-width="0" d="M773.64,-979.37C773.64,-979.37 723.12,-979.37 723.12,-979.37 717.12,-979.37 711.12,-973.37 711.12,-967.37 711.12,-967.37 711.12,-954.23 711.12,-954.23 711.12,-948.23 717.12,-942.23 723.12,-942.23 723.12,-942.23 773.64,-942.23 773.64,-942.23 779.64,-942.23 785.64,-948.23 785.64,-954.23 785.64,-954.23 785.64,-967.37 785.64,-967.37 785.64,-973.37 779.64,-979.37 773.64,-979.37"/>
<text text-anchor="middle" x="748.38" y="-965.55" font-family="sans-serif" font-size="10.00" fill="white">prepare_food</text>
<text text-anchor="middle" x="748.38" y="-951.3" font-family="sans-serif" font-size="10.00" fill="white">loss_waste</text>
</g>
<!-- 29&#45;&gt;2 -->
<g id="edge25" class="edge">
<title>29&#45;&gt;2</title>
<path fill="none" stroke="#999999" stroke-width="1.5" d="M785.45,-978.66C798.72,-985.24 813.85,-992.73 827.52,-999.5"/>
<polygon fill="#999999" stroke="#999999" stroke-width="1.5" points="826.43,-1001.69 833.79,-1002.6 828.6,-997.3 826.43,-1001.69"/>
</g>
<!-- 30 -->
<g id="node31" class="node">
<title>30</title>
<path fill="#3b745f" stroke="#5673d8" stroke-width="0" d="M778.89,-920.37C778.89,-920.37 717.87,-920.37 717.87,-920.37 711.87,-920.37 705.87,-914.37 705.87,-908.37 705.87,-908.37 705.87,-895.23 705.87,-895.23 705.87,-889.23 711.87,-883.23 717.87,-883.23 717.87,-883.23 778.89,-883.23 778.89,-883.23 784.89,-883.23 790.89,-889.23 790.89,-895.23 790.89,-895.23 790.89,-908.37 790.89,-908.37 790.89,-914.37 784.89,-920.37 778.89,-920.37"/>
<text text-anchor="middle" x="748.38" y="-906.55" font-family="sans-serif" font-size="10.00" fill="white">retrieve_faostat</text>
<text text-anchor="middle" x="748.38" y="-892.3" font-family="sans-serif" font-size="10.00" fill="white">prices</text>
</g>
<!-- 30&#45;&gt;2 -->
<g id="edge30" class="edge">
<title>30&#45;&gt;2</title>
<path fill="none" stroke="#999999" stroke-width="1.5" d="M780.42,-920.31C785.1,-923.59 789.75,-927.13 793.89,-930.8 815.74,-950.17 836.75,-976.09 850.88,-994.97"/>
<polygon fill="#999999" stroke="#999999" stroke-width="1.5" points="848.65,-996.08 854.78,-1000.25 852.59,-993.17 848.65,-996.08"/>
</g>
<!-- 31&#45;&gt;2 -->
<g id="edge20" class="edge">
<title>31&#45;&gt;2</title>
<path fill="none" stroke="#999999" stroke-width="1.5" d="M669.53,-663.27C706.79,-665 761.44,-673.63 793.89,-706.8 834.09,-747.9 857.89,-925.23 865.68,-993.17"/>
<polygon fill="#999999" stroke="#999999" stroke-width="1.5" points="863.2,-993.07 866.42,-999.75 868.07,-992.52 863.2,-993.07"/>
</g>
<!-- 32 -->
<g id="node33" class="node">
<title>32</title>
<path fill="#3b745f" stroke="#59d856" stroke-width="0" d="M533.97,-789.5C533.97,-789.5 476.7,-789.5 476.7,-789.5 470.7,-789.5 464.7,-783.5 464.7,-777.5 464.7,-777.5 464.7,-750.11 464.7,-750.11 464.7,-744.11 470.7,-738.11 476.7,-738.11 476.7,-738.11 533.97,-738.11 533.97,-738.11 539.97,-738.11 545.97,-744.11 545.97,-750.11 545.97,-750.11 545.97,-777.5 545.97,-777.5 545.97,-783.5 539.97,-789.5 533.97,-789.5"/>
<text text-anchor="middle" x="505.34" y="-775.68" font-family="sans-serif" font-size="10.00" fill="white">download</text>
<text text-anchor="middle" x="505.34" y="-761.43" font-family="sans-serif" font-size="10.00" fill="white">grassland_yield</text>
<text text-anchor="middle" x="505.34" y="-747.18" font-family="sans-serif" font-size="10.00" fill="white">data</text>
</g>
<!-- 32&#45;&gt;31 -->
<g id="edge61" class="edge">
<title>32&#45;&gt;31</title>
<path fill="none" stroke="#999999" stroke-width="1.5" d="M542.69,-738.17C546.83,-734.83 550.89,-731.33 554.6,-727.8 569.24,-713.89 568.55,-706.27 583.6,-692.8 585.52,-691.08 587.55,-689.39 589.65,-687.74"/>
<polygon fill="#999999" stroke="#999999" stroke-width="1.5" points="590.97,-689.81 595.12,-683.67 588.04,-685.88 590.97,-689.81"/>
</g>
<!-- 33&#45;&gt;2 -->
<g id="edge21" class="edge">
<title>33&#45;&gt;2</title>
<path fill="none" stroke="#999999" stroke-width="1.5" d="M782.52,-1239.52C786.72,-1235.61 790.66,-1231.34 793.89,-1226.8 834.47,-1169.77 855.19,-1088.33 863.7,-1046.65"/>
<polygon fill="#999999" stroke="#999999" stroke-width="1.5" points="866.08,-1047.23 865.03,-1039.89 861.27,-1046.28 866.08,-1047.23"/>
</g>
<!-- 34 -->
<g id="node35" class="node">
<title>34</title>
<path fill="#3b745f" stroke="#56d882" stroke-width="0" d="M533.6,-1609.5C533.6,-1609.5 477.08,-1609.5 477.08,-1609.5 471.08,-1609.5 465.08,-1603.5 465.08,-1597.5 465.08,-1597.5 465.08,-1570.11 465.08,-1570.11 465.08,-1564.11 471.08,-1558.11 477.08,-1558.11 477.08,-1558.11 533.6,-1558.11 533.6,-1558.11 539.6,-1558.11 545.6,-1564.11 545.6,-1570.11 545.6,-1570.11 545.6,-1597.5 545.6,-1597.5 545.6,-1603.5 539.6,-1609.5 533.6,-1609.5"/>
<text text-anchor="middle" x="505.34" y="-1595.68" font-family="sans-serif" font-size="10.00" fill="white">extract</text>
<text text-anchor="middle" x="505.34" y="-1581.43" font-family="sans-serif" font-size="10.00" fill="white">waterfootprint</text>
<text text-anchor="middle" x="505.34" y="-1567.18" font-family="sans-serif" font-size="10.00" fill="white">appendix</text>
</g>
<!-- 34&#45;&gt;33 -->
<g id="edge62" class="edge">
<title>34&#45;&gt;33</title>
<path fill="none" stroke="#999999" stroke-width="1.5" d="M545.04,-1558.12C548.53,-1554.9 551.79,-1551.44 554.6,-1547.8 575.65,-1520.47 560.31,-1501.25 583.6,-1475.8 614,-1442.59 646.1,-1465.25 673.87,-1429.8 708.78,-1385.25 674.93,-1355.02 702.87,-1305.8 705.01,-1302.03 707.58,-1298.38 710.4,-1294.9"/>
<polygon fill="#999999" stroke="#999999" stroke-width="1.5" points="712.16,-1296.6 714.96,-1289.73 708.49,-1293.36 712.16,-1296.6"/>
</g>
<!-- 36 -->
<g id="node37" class="node">
<title>36</title>
<path fill="#3b745f" stroke="#568ad8" stroke-width="0" d="M652.49,-1538.5C652.49,-1538.5 604.97,-1538.5 604.97,-1538.5 598.97,-1538.5 592.97,-1532.5 592.97,-1526.5 592.97,-1526.5 592.97,-1499.11 592.97,-1499.11 592.97,-1493.11 598.97,-1487.11 604.97,-1487.11 604.97,-1487.11 652.49,-1487.11 652.49,-1487.11 658.49,-1487.11 664.49,-1493.11 664.49,-1499.11 664.49,-1499.11 664.49,-1526.5 664.49,-1526.5 664.49,-1532.5 658.49,-1538.5 652.49,-1538.5"/>
<text text-anchor="middle" x="628.73" y="-1524.68" font-family="sans-serif" font-size="10.00" fill="white">process_blue</text>
<text text-anchor="middle" x="628.73" y="-1510.43" font-family="sans-serif" font-size="10.00" fill="white">water</text>
<text text-anchor="middle" x="628.73" y="-1496.18" font-family="sans-serif" font-size="10.00" fill="white">availability</text>
</g>
<!-- 34&#45;&gt;36 -->
<g id="edge67" class="edge">
<title>34&#45;&gt;36</title>
<path fill="none" stroke="#999999" stroke-width="1.5" d="M545.42,-1560.95C558.16,-1553.49 572.37,-1545.19 585.34,-1537.6"/>
<polygon fill="#999999" stroke="#999999" stroke-width="1.5" points="586.47,-1539.77 591.28,-1534.13 584,-1535.54 586.47,-1539.77"/>
</g>
<!-- 35 -->
<g id="node36" class="node">
<title>35</title>
<path fill="#3b745f" stroke="#56d86b" stroke-width="0" d="M406.83,-1609.5C406.83,-1609.5 350.31,-1609.5 350.31,-1609.5 344.31,-1609.5 338.31,-1603.5 338.31,-1597.5 338.31,-1597.5 338.31,-1570.11 338.31,-1570.11 338.31,-1564.11 344.31,-1558.11 350.31,-1558.11 350.31,-1558.11 406.83,-1558.11 406.83,-1558.11 412.83,-1558.11 418.83,-1564.11 418.83,-1570.11 418.83,-1570.11 418.83,-1597.5 418.83,-1597.5 418.83,-1603.5 412.83,-1609.5 406.83,-1609.5"/>
<text text-anchor="middle" x="378.57" y="-1595.68" font-family="sans-serif" font-size="10.00" fill="white">download</text>
<text text-anchor="middle" x="378.57" y="-1581.43" font-family="sans-serif" font-size="10.00" fill="white">waterfootprint</text>
<text text-anchor="middle" x="378.57" y="-1567.18" font-family="sans-serif" font-size="10.00" fill="white">appendix</text>
</g>
<!-- 35&#45;&gt;34 -->
<g id="edge66" class="edge">
<title>35&#45;&gt;34</title>
<path fill="none" stroke="#999999" stroke-width="1.5" d="M418.71,-1583.8C430.67,-1583.8 443.96,-1583.8 456.43,-1583.8"/>
<polygon fill="#999999" stroke="#999999" stroke-width="1.5" points="456.07,-1586.25 463.07,-1583.8 456.07,-1581.35 456.07,-1586.25"/>
</g>
<!-- 36&#45;&gt;2 -->
<g id="edge32" class="edge">
<title>36&#45;&gt;2</title>
<path fill="none" stroke="#999999" stroke-width="1.5" d="M660.39,-1487.54C665.5,-1482.14 670.29,-1476.14 673.87,-1469.8 701.7,-1420.52 667.89,-1390.29 702.87,-1345.8 730.89,-1310.17 765.33,-1335 793.89,-1299.8 825.93,-1260.32 853.9,-1108.64 864.26,-1046.54"/>
<polygon fill="#999999" stroke="#999999" stroke-width="1.5" points="866.62,-1047.26 865.34,-1039.95 861.79,-1046.46 866.62,-1047.26"/>
</g>
<!-- 36&#45;&gt;33 -->
<g id="edge64" class="edge">
<title>36&#45;&gt;33</title>
<path fill="none" stroke="#999999" stroke-width="1.5" d="M661.12,-1487.21C666.03,-1481.92 670.57,-1476.04 673.87,-1469.8 708.49,-1404.38 668.11,-1371.15 702.87,-1305.8 704.8,-1302.18 707.14,-1298.69 709.72,-1295.36"/>
<polygon fill="#999999" stroke="#999999" stroke-width="1.5" points="711.55,-1296.99 714.25,-1290.08 707.83,-1293.8 711.55,-1296.99"/>
</g>
<!-- 37&#45;&gt;2 -->
<g id="edge22" class="edge">
<title>37&#45;&gt;2</title>
<path fill="none" stroke="#999999" stroke-width="1.5" d="M782.12,-1178.4C786.38,-1175.2 790.44,-1171.65 793.89,-1167.8 826.56,-1131.31 848.78,-1077.92 860,-1046.24"/>
<polygon fill="#999999" stroke="#999999" stroke-width="1.5" points="862.3,-1047.09 862.26,-1039.67 857.67,-1045.49 862.3,-1047.09"/>
</g>
<!-- 38&#45;&gt;37 -->
<g id="edge70" class="edge">
<title>38&#45;&gt;37</title>
<path fill="none" stroke="#999999" stroke-width="1.5" d="M640.94,-1381.41C650.54,-1365.1 664.31,-1340.44 673.87,-1317.8 690.55,-1278.31 676.95,-1259.95 702.87,-1225.8 704.09,-1224.19 705.43,-1222.64 706.86,-1221.16"/>
<polygon fill="#999999" stroke="#999999" stroke-width="1.5" points="708.37,-1223.1 711.92,-1216.59 705.08,-1219.47 708.37,-1223.1"/>
</g>
<!-- 39 -->
<g id="node40" class="node">
<title>39</title>
<path fill="#3b745f" stroke="#5682d8" stroke-width="0" d="M532.47,-1783.37C532.47,-1783.37 478.2,-1783.37 478.2,-1783.37 472.2,-1783.37 466.2,-1777.37 466.2,-1771.37 466.2,-1771.37 466.2,-1758.23 466.2,-1758.23 466.2,-1752.23 472.2,-1746.23 478.2,-1746.23 478.2,-1746.23 532.47,-1746.23 532.47,-1746.23 538.47,-1746.23 544.47,-1752.23 544.47,-1758.23 544.47,-1758.23 544.47,-1771.37 544.47,-1771.37 544.47,-1777.37 538.47,-1783.37 532.47,-1783.37"/>
<text text-anchor="middle" x="505.34" y="-1769.55" font-family="sans-serif" font-size="10.00" fill="white">resample_land</text>
<text text-anchor="middle" x="505.34" y="-1755.3" font-family="sans-serif" font-size="10.00" fill="white">cover</text>
</g>
<!-- 39&#45;&gt;38 -->
<g id="edge74" class="edge">
<title>39&#45;&gt;38</title>
<path fill="none" stroke="#999999" stroke-width="1.5" d="M513.34,-1746.39C523.49,-1719.22 542.38,-1666.66 554.6,-1620.8 571.52,-1557.3 560.34,-1537.27 583.6,-1475.8 590.25,-1458.22 600.72,-1439.96 609.79,-1425.75"/>
<polygon fill="#999999" stroke="#999999" stroke-width="1.5" points="611.64,-1427.4 613.42,-1420.2 607.54,-1424.72 611.64,-1427.4"/>
</g>
<!-- 40&#45;&gt;39 -->
<g id="edge76" class="edge">
<title>40&#45;&gt;39</title>
<path fill="none" stroke="#999999" stroke-width="1.5" d="M415.74,-1535.01C420.1,-1538.39 424.07,-1542.31 427.08,-1546.8 472.68,-1614.85 413.69,-1658.71 456.08,-1728.8 458.65,-1733.05 461.93,-1736.96 465.56,-1740.51"/>
<polygon fill="#999999" stroke="#999999" stroke-width="1.5" points="463.83,-1742.25 470.7,-1745.02 467.05,-1738.57 463.83,-1742.25"/>
</g>
<!-- 43 -->
<g id="node44" class="node">
<title>43</title>
<path fill="#3b745f" stroke="#567bd8" stroke-width="0" d="M520.47,-1536.37C520.47,-1536.37 490.2,-1536.37 490.2,-1536.37 484.2,-1536.37 478.2,-1530.37 478.2,-1524.37 478.2,-1524.37 478.2,-1511.23 478.2,-1511.23 478.2,-1505.23 484.2,-1499.23 490.2,-1499.23 490.2,-1499.23 520.47,-1499.23 520.47,-1499.23 526.47,-1499.23 532.47,-1505.23 532.47,-1511.23 532.47,-1511.23 532.47,-1524.37 532.47,-1524.37 532.47,-1530.37 526.47,-1536.37 520.47,-1536.37"/>
<text text-anchor="middle" x="505.34" y="-1522.55" font-family="sans-serif" font-size="10.00" fill="white">resample</text>
<text text-anchor="middle" x="505.34" y="-1508.3" font-family="sans-serif" font-size="10.00" fill="white">regrowth</text>
</g>
<!-- 40&#45;&gt;43 -->
<g id="edge80" class="edge">
<title>40&#45;&gt;43</title>
<path fill="none" stroke="#999999" stroke-width="1.5" d="M415.66,-1517.8C432.54,-1517.8 452.57,-1517.8 469.31,-1517.8"/>
<polygon fill="#999999" stroke="#999999" stroke-width="1.5" points="468.97,-1520.25 475.97,-1517.8 468.97,-1515.35 468.97,-1520.25"/>
</g>
<!-- 41 -->
<g id="node42" class="node">
<title>41</title>
<path fill="#3b745f" stroke="#56d87b" stroke-width="0" d="M400.08,-1783.37C400.08,-1783.37 357.06,-1783.37 357.06,-1783.37 351.06,-1783.37 345.06,-1777.37 345.06,-1771.37 345.06,-1771.37 345.06,-1758.23 345.06,-1758.23 345.06,-1752.23 351.06,-1746.23 357.06,-1746.23 357.06,-1746.23 400.08,-1746.23 400.08,-1746.23 406.08,-1746.23 412.08,-1752.23 412.08,-1758.23 412.08,-1758.23 412.08,-1771.37 412.08,-1771.37 412.08,-1777.37 406.08,-1783.37 400.08,-1783.37"/>
<text text-anchor="middle" x="378.57" y="-1769.55" font-family="sans-serif" font-size="10.00" fill="white">extract_land</text>
<text text-anchor="middle" x="378.57" y="-1755.3" font-family="sans-serif" font-size="10.00" fill="white">cover_class</text>
</g>
<!-- 41&#45;&gt;39 -->
<g id="edge77" class="edge">
<title>41&#45;&gt;39</title>
<path fill="none" stroke="#999999" stroke-width="1.5" d="M412.03,-1764.8C425.78,-1764.8 442.07,-1764.8 457.12,-1764.8"/>
<polygon fill="#999999" stroke="#999999" stroke-width="1.5" points="457.02,-1767.25 464.02,-1764.8 457.02,-1762.35 457.02,-1767.25"/>
</g>
<!-- 42 -->
<g id="node43" class="node">
<title>42</title>
<path fill="#3b745f" stroke="#56d85b" stroke-width="0" d="M288.31,-1783.37C288.31,-1783.37 231.79,-1783.37 231.79,-1783.37 225.79,-1783.37 219.79,-1777.37 219.79,-1771.37 219.79,-1771.37 219.79,-1758.23 219.79,-1758.23 219.79,-1752.23 225.79,-1746.23 231.79,-1746.23 231.79,-1746.23 288.31,-1746.23 288.31,-1746.23 294.31,-1746.23 300.31,-1752.23 300.31,-1758.23 300.31,-1758.23 300.31,-1771.37 300.31,-1771.37 300.31,-1777.37 294.31,-1783.37 288.31,-1783.37"/>
<text text-anchor="middle" x="260.05" y="-1769.55" font-family="sans-serif" font-size="10.00" fill="white">download_land</text>
<text text-anchor="middle" x="260.05" y="-1755.3" font-family="sans-serif" font-size="10.00" fill="white">cover</text>
</g>
<!-- 42&#45;&gt;41 -->
<g id="edge79" class="edge">
<title>42&#45;&gt;41</title>
<path fill="none" stroke="#999999" stroke-width="1.5" d="M300.17,-1764.8C311.75,-1764.8 324.47,-1764.8 336.19,-1764.8"/>
<polygon fill="#999999" stroke="#999999" stroke-width="1.5" points="336.06,-1767.25 343.06,-1764.8 336.06,-1762.35 336.06,-1767.25"/>
</g>
<!-- 43&#45;&gt;38 -->
<g id="edge75" class="edge">
<title>43&#45;&gt;38</title>
<path fill="none" stroke="#999999" stroke-width="1.5" d="M532.46,-1505.48C540.21,-1500.98 548.3,-1495.36 554.6,-1488.8 573.2,-1469.43 566.43,-1456.45 583.6,-1435.8 587,-1431.71 590.92,-1427.75 595,-1424.04"/>
<polygon fill="#999999" stroke="#999999" stroke-width="1.5" points="596.51,-1425.98 600.21,-1419.55 593.31,-1422.26 596.51,-1425.98"/>
</g>
<!-- 44 -->
<g id="node45" class="node">
<title>44</title>
<path fill="#3b745f" stroke="#97d856" stroke-width="0" d="M415.08,-1477.5C415.08,-1477.5 342.06,-1477.5 342.06,-1477.5 336.06,-1477.5 330.06,-1471.5 330.06,-1465.5 330.06,-1465.5 330.06,-1438.11 330.06,-1438.11 330.06,-1432.11 336.06,-1426.11 342.06,-1426.11 342.06,-1426.11 415.08,-1426.11 415.08,-1426.11 421.08,-1426.11 427.08,-1432.11 427.08,-1438.11 427.08,-1438.11 427.08,-1465.5 427.08,-1465.5 427.08,-1471.5 421.08,-1477.5 415.08,-1477.5"/>
<text text-anchor="middle" x="378.57" y="-1463.68" font-family="sans-serif" font-size="10.00" fill="white">download_forest</text>
<text text-anchor="middle" x="378.57" y="-1449.43" font-family="sans-serif" font-size="10.00" fill="white">carbon</text>
<text text-anchor="middle" x="378.57" y="-1435.18" font-family="sans-serif" font-size="10.00" fill="white">accumulation_1km</text>
</g>
<!-- 44&#45;&gt;43 -->
<g id="edge81" class="edge">
<title>44&#45;&gt;43</title>
<path fill="none" stroke="#999999" stroke-width="1.5" d="M426.74,-1476.75C441.26,-1484.43 456.94,-1492.73 470.39,-1499.84"/>
<polygon fill="#999999" stroke="#999999" stroke-width="1.5" points="469.1,-1501.93 476.43,-1503.04 471.39,-1497.6 469.1,-1501.93"/>
</g>
<!-- 45 -->
<g id="node46" class="node">
<title>45</title>
<path fill="#3b745f" stroke="#afd856" stroke-width="0" d="M542.6,-1418.37C542.6,-1418.37 468.08,-1418.37 468.08,-1418.37 462.08,-1418.37 456.08,-1412.37 456.08,-1406.37 456.08,-1406.37 456.08,-1393.23 456.08,-1393.23 456.08,-1387.23 462.08,-1381.23 468.08,-1381.23 468.08,-1381.23 542.6,-1381.23 542.6,-1381.23 548.6,-1381.23 554.6,-1387.23 554.6,-1393.23 554.6,-1393.23 554.6,-1406.37 554.6,-1406.37 554.6,-1412.37 548.6,-1418.37 542.6,-1418.37"/>
<text text-anchor="middle" x="505.34" y="-1404.55" font-family="sans-serif" font-size="10.00" fill="white">download_biomass</text>
<text text-anchor="middle" x="505.34" y="-1390.3" font-family="sans-serif" font-size="10.00" fill="white">cci</text>
</g>
<!-- 45&#45;&gt;38 -->
<g id="edge72" class="edge">
<title>45&#45;&gt;38</title>
<path fill="none" stroke="#999999" stroke-width="1.5" d="M554.32,-1399.8C565.19,-1399.8 576.62,-1399.8 587.15,-1399.8"/>
<polygon fill="#999999" stroke="#999999" stroke-width="1.5" points="586.86,-1402.25 593.86,-1399.8 586.86,-1397.35 586.86,-1402.25"/>
</g>
<!-- 46 -->
<g id="node47" class="node">
<title>46</title>
<path fill="#3b745f" stroke="#56d863" stroke-width="0" d="M527.97,-1477.37C527.97,-1477.37 482.7,-1477.37 482.7,-1477.37 476.7,-1477.37 470.7,-1471.37 470.7,-1465.37 470.7,-1465.37 470.7,-1452.23 470.7,-1452.23 470.7,-1446.23 476.7,-1440.23 482.7,-1440.23 482.7,-1440.23 527.97,-1440.23 527.97,-1440.23 533.97,-1440.23 539.97,-1446.23 539.97,-1452.23 539.97,-1452.23 539.97,-1465.37 539.97,-1465.37 539.97,-1471.37 533.97,-1477.37 527.97,-1477.37"/>
<text text-anchor="middle" x="505.34" y="-1463.55" font-family="sans-serif" font-size="10.00" fill="white">download</text>
<text text-anchor="middle" x="505.34" y="-1449.3" font-family="sans-serif" font-size="10.00" fill="white">soilgrids_ocs</text>
</g>
<!-- 46&#45;&gt;38 -->
<g id="edge73" class="edge">
<title>46&#45;&gt;38</title>
<path fill="none" stroke="#999999" stroke-width="1.5" d="M539.83,-1442.52C554.77,-1435.26 572.49,-1426.65 588.08,-1419.07"/>
<polygon fill="#999999" stroke="#999999" stroke-width="1.5" points="588.76,-1421.47 593.98,-1416.21 586.61,-1417.06 588.76,-1421.47"/>
</g>
<!-- 47&#45;&gt;1 -->
<g id="edge16" class="edge">
<title>47&#45;&gt;1</title>
<path fill="none" stroke="#999999" stroke-width="1.5" d="M907.14,-1355.29C917.6,-1360.57 929.07,-1366.37 939.8,-1371.79"/>
<polygon fill="#999999" stroke="#999999" stroke-width="1.5" points="938.46,-1373.85 945.81,-1374.82 940.67,-1369.48 938.46,-1373.85"/>
</g>
<!-- 47&#45;&gt;52 -->
<g id="edge91" class="edge">
<title>47&#45;&gt;52</title>
<path fill="none" stroke="#999999" stroke-width="1.5" d="M882.35,-1355.3C895.52,-1374.49 918.48,-1404.12 945.16,-1421.8 977.04,-1442.93 1018.64,-1455.85 1050.04,-1463.25"/>
<polygon fill="#999999" stroke="#999999" stroke-width="1.5" points="1049.45,-1465.62 1056.81,-1464.78 1050.53,-1460.84 1049.45,-1465.62"/>
</g>
<!-- 47&#45;&gt;53 -->
<g id="edge94" class="edge">
<title>47&#45;&gt;53</title>
<path fill="none" stroke="#999999" stroke-width="1.5" d="M910.28,-1321.27C951.68,-1305.1 1016.08,-1279.94 1057.09,-1263.93"/>
<polygon fill="#999999" stroke="#999999" stroke-width="1.5" points="1057.73,-1266.31 1063.35,-1261.48 1055.94,-1261.75 1057.73,-1266.31"/>
</g>
<!-- 47&#45;&gt;62 -->
<g id="edge116" class="edge">
<title>47&#45;&gt;62</title>
<path fill="none" stroke="#999999" stroke-width="1.5" d="M880.67,-1355.22C894.19,-1379.21 919.43,-1422.06 945.16,-1455.8 985.44,-1508.61 1039.5,-1564.39 1070.71,-1595.38"/>
<polygon fill="#999999" stroke="#999999" stroke-width="1.5" points="1068.69,-1596.83 1075.39,-1600.01 1072.13,-1593.34 1068.69,-1596.83"/>
</g>
<!-- 47&#45;&gt;63 -->
<g id="edge121" class="edge">
<title>47&#45;&gt;63</title>
<path fill="none" stroke="#999999" stroke-width="1.5" d="M890.61,-1318.33C906.28,-1303.91 928.43,-1283.54 946.93,-1266.52"/>
<polygon fill="#999999" stroke="#999999" stroke-width="1.5" points="948.4,-1268.5 951.89,-1261.96 945.08,-1264.9 948.4,-1268.5"/>
</g>
<!-- 48 -->
<g id="node49" class="node">
<title>48</title>
<path fill="#3b745f" stroke="#568ad8" stroke-width="0" d="M780.01,-1559.37C780.01,-1559.37 716.74,-1559.37 716.74,-1559.37 710.74,-1559.37 704.74,-1553.37 704.74,-1547.37 704.74,-1547.37 704.74,-1534.23 704.74,-1534.23 704.74,-1528.23 710.74,-1522.23 716.74,-1522.23 716.74,-1522.23 780.01,-1522.23 780.01,-1522.23 786.01,-1522.23 792.01,-1528.23 792.01,-1534.23 792.01,-1534.23 792.01,-1547.37 792.01,-1547.37 792.01,-1553.37 786.01,-1559.37 780.01,-1559.37"/>
<text text-anchor="middle" x="748.38" y="-1545.55" font-family="sans-serif" font-size="10.00" fill="white">prepare_relative</text>
<text text-anchor="middle" x="748.38" y="-1531.3" font-family="sans-serif" font-size="10.00" fill="white">risks</text>
</g>
<!-- 48&#45;&gt;47 -->
<g id="edge82" class="edge">
<title>48&#45;&gt;47</title>
<path fill="none" stroke="#999999" stroke-width="1.5" d="M783.97,-1522.45C787.74,-1519.31 791.18,-1515.76 793.89,-1511.8 829.5,-1459.7 789.67,-1426.46 822.89,-1372.8 825.48,-1368.62 828.74,-1364.72 832.32,-1361.16"/>
<polygon fill="#999999" stroke="#999999" stroke-width="1.5" points="833.78,-1363.13 837.34,-1356.63 830.5,-1359.49 833.78,-1363.13"/>
</g>
<!-- 49 -->
<g id="node50" class="node">
<title>49</title>
<path fill="#3b745f" stroke="#56b9d8" stroke-width="0" d="M771.76,-1500.37C771.76,-1500.37 724.99,-1500.37 724.99,-1500.37 718.99,-1500.37 712.99,-1494.37 712.99,-1488.37 712.99,-1488.37 712.99,-1475.23 712.99,-1475.23 712.99,-1469.23 718.99,-1463.23 724.99,-1463.23 724.99,-1463.23 771.76,-1463.23 771.76,-1463.23 777.76,-1463.23 783.76,-1469.23 783.76,-1475.23 783.76,-1475.23 783.76,-1488.37 783.76,-1488.37 783.76,-1494.37 777.76,-1500.37 771.76,-1500.37"/>
<text text-anchor="middle" x="748.38" y="-1486.55" font-family="sans-serif" font-size="10.00" fill="white">prepare_gbd</text>
<text text-anchor="middle" x="748.38" y="-1472.3" font-family="sans-serif" font-size="10.00" fill="white">mortality</text>
</g>
<!-- 49&#45;&gt;47 -->
<g id="edge85" class="edge">
<title>49&#45;&gt;47</title>
<path fill="none" stroke="#999999" stroke-width="1.5" d="M776.42,-1463.61C782.76,-1458.42 789.06,-1452.37 793.89,-1445.8 814.58,-1417.68 802.03,-1400.79 822.89,-1372.8 825.98,-1368.65 829.66,-1364.73 833.58,-1361.09"/>
<polygon fill="#999999" stroke="#999999" stroke-width="1.5" points="834.9,-1363.19 838.6,-1356.76 831.7,-1359.48 834.9,-1363.19"/>
</g>
<!-- 50&#45;&gt;47 -->
<g id="edge83" class="edge">
<title>50&#45;&gt;47</title>
<path fill="none" stroke="#999999" stroke-width="1.5" d="M781.57,-1583.72C786.33,-1580.07 790.71,-1575.77 793.89,-1570.8 841.84,-1495.89 778.38,-1449.8 822.89,-1372.8 825.23,-1368.76 828.22,-1364.99 831.54,-1361.55"/>
<polygon fill="#999999" stroke="#999999" stroke-width="1.5" points="833.13,-1363.42 836.6,-1356.86 829.8,-1359.82 833.13,-1363.42"/>
</g>
<!-- 51&#45;&gt;0 -->
<g id="edge7" class="edge">
<title>51&#45;&gt;0</title>
<path fill="none" stroke="#999999" stroke-width="1.5" d="M1128.74,-1351.41C1134.62,-1347.53 1140.36,-1342.97 1144.95,-1337.8 1169.01,-1310.7 1184.42,-1271.28 1192.63,-1245.34"/>
<polygon fill="#999999" stroke="#999999" stroke-width="1.5" points="1194.88,-1246.36 1194.57,-1238.95 1190.19,-1244.93 1194.88,-1246.36"/>
</g>
<!-- 52&#45;&gt;0 -->
<g id="edge10" class="edge">
<title>52&#45;&gt;0</title>
<path fill="none" stroke="#999999" stroke-width="1.5" d="M1128.07,-1453.51C1134.42,-1448.47 1140.53,-1442.5 1144.95,-1435.8 1184.56,-1375.79 1195.64,-1289.18 1198.74,-1245.76"/>
<polygon fill="#999999" stroke="#999999" stroke-width="1.5" points="1201.18,-1246.09 1199.18,-1238.95 1196.29,-1245.78 1201.18,-1246.09"/>
</g>
<!-- 53&#45;&gt;0 -->
<g id="edge2" class="edge">
<title>53&#45;&gt;0</title>
<path fill="none" stroke="#999999" stroke-width="1.5" d="M1128.18,-1239.88C1139.8,-1236.47 1153.15,-1232.55 1165.15,-1229.02"/>
<polygon fill="#999999" stroke="#999999" stroke-width="1.5" points="1165.81,-1231.38 1171.84,-1227.06 1164.43,-1226.68 1165.81,-1231.38"/>
</g>
<!-- 54&#45;&gt;0 -->
<g id="edge13" class="edge">
<title>54&#45;&gt;0</title>
<path fill="none" stroke="#999999" stroke-width="1.5" d="M916.05,-23.95C977.85,-13.55 1087.18,-6.27 1144.95,-68.8 1184.31,-111.4 1197.51,-1022.26 1199.63,-1191.77"/>
<polygon fill="#999999" stroke="#999999" stroke-width="1.5" points="1197.18,-1191.77 1199.72,-1198.74 1202.08,-1191.71 1197.18,-1191.77"/>
</g>
<!-- 55&#45;&gt;0 -->
<g id="edge11" class="edge">
<title>55&#45;&gt;0</title>
<path fill="none" stroke="#999999" stroke-width="1.5" d="M665.67,-122.69C712,-108.18 795.31,-85.8 868.52,-85.8 868.52,-85.8 868.52,-85.8 983.42,-85.8 1069.78,-85.8 1102.22,-118.75 1144.95,-193.8 1195.63,-282.83 1199.64,-1038.94 1199.93,-1191.89"/>
<polygon fill="#999999" stroke="#999999" stroke-width="1.5" points="1197.48,-1191.81 1199.94,-1198.81 1202.38,-1191.8 1197.48,-1191.81"/>
</g>
<!-- 56&#45;&gt;0 -->
<g id="edge4" class="edge">
<title>56&#45;&gt;0</title>
<path fill="none" stroke="#999999" stroke-width="1.5" d="M1139.95,-1201.76C1148.33,-1204.14 1157.05,-1206.62 1165.15,-1208.92"/>
<polygon fill="#999999" stroke="#999999" stroke-width="1.5" points="1164.41,-1211.26 1171.81,-1210.81 1165.74,-1206.54 1164.41,-1211.26"/>
</g>
<!-- 57&#45;&gt;0 -->
<g id="edge12" class="edge">
<title>57&#45;&gt;0</title>
<path fill="none" stroke="#999999" stroke-width="1.5" d="M1109.09,-242.37C1120.4,-262.05 1137.22,-294.42 1144.95,-324.8 1188.28,-495.17 1197.97,-1061.92 1199.65,-1192.02"/>
<polygon fill="#999999" stroke="#999999" stroke-width="1.5" points="1197.19,-1191.72 1199.73,-1198.69 1202.09,-1191.66 1197.19,-1191.72"/>
</g>
<!-- 58&#45;&gt;0 -->
<g id="edge8" class="edge">
<title>58&#45;&gt;0</title>
<path fill="none" stroke="#999999" stroke-width="1.5" d="M1100.87,-387.45C1115.85,-513.12 1181.39,-1063.03 1196.73,-1191.77"/>
<polygon fill="#999999" stroke="#999999" stroke-width="1.5" points="1194.29,-1192.04 1197.55,-1198.7 1199.16,-1191.46 1194.29,-1192.04"/>
</g>
<!-- 59&#45;&gt;0 -->
<g id="edge6" class="edge">
<title>59&#45;&gt;0</title>
<path fill="none" stroke="#999999" stroke-width="1.5" d="M1130.58,-1289.29C1135.55,-1286.01 1140.5,-1282.47 1144.95,-1278.8 1157.67,-1268.3 1170.23,-1254.89 1180.13,-1243.42"/>
<polygon fill="#999999" stroke="#999999" stroke-width="1.5" points="1181.81,-1245.23 1184.46,-1238.3 1178.07,-1242.06 1181.81,-1245.23"/>
</g>
<!-- 60&#45;&gt;0 -->
<g id="edge1" class="edge">
<title>60&#45;&gt;0</title>
<path fill="none" stroke="#999999" stroke-width="1.5" d="M1125.89,-1102.23C1132.61,-1107.42 1139.43,-1113.41 1144.95,-1119.8 1163.96,-1141.8 1179.36,-1171.41 1188.98,-1192.51"/>
<polygon fill="#999999" stroke="#999999" stroke-width="1.5" points="1186.74,-1193.5 1191.82,-1198.91 1191.22,-1191.51 1186.74,-1193.5"/>
</g>
<!-- 61&#45;&gt;0 -->
<g id="edge5" class="edge">
<title>61&#45;&gt;0</title>
<path fill="none" stroke="#999999" stroke-width="1.5" d="M1132.15,-1514.52C1137.05,-1510.93 1141.56,-1506.7 1144.95,-1501.8 1173.74,-1460.21 1191.36,-1307.88 1197.49,-1245.6"/>
<polygon fill="#999999" stroke="#999999" stroke-width="1.5" points="1199.9,-1246.21 1198.13,-1239.01 1195.02,-1245.74 1199.9,-1246.21"/>
</g>
<!-- 62&#45;&gt;0 -->
<g id="edge9" class="edge">
<title>62&#45;&gt;0</title>
<path fill="none" stroke="#999999" stroke-width="1.5" d="M1116.76,-1601.3C1126.74,-1590.44 1138.26,-1575.91 1144.95,-1560.8 1193.38,-1451.41 1199.75,-1305.52 1200.19,-1245.91"/>
<polygon fill="#999999" stroke="#999999" stroke-width="1.5" points="1202.64,-1246.05 1200.21,-1239.04 1197.74,-1246.04 1202.64,-1246.05"/>
</g>
<!-- 63&#45;&gt;0 -->
<g id="edge3" class="edge">
<title>63&#45;&gt;0</title>
<path fill="none" stroke="#999999" stroke-width="1.5" d="M997.45,-1209.47C1008.74,-1191.92 1026.38,-1169.96 1048.68,-1159.8 1087.62,-1142.07 1105.71,-1142.74 1144.95,-1159.8 1160.94,-1166.76 1174.4,-1180.91 1183.99,-1193.61"/>
<polygon fill="#999999" stroke="#999999" stroke-width="1.5" points="1181.79,-1194.75 1187.86,-1199.01 1185.77,-1191.9 1181.79,-1194.75"/>
</g>
</g>
</svg>
